solid OpenSCAD_Model
  facet normal -1 0 0
    outer loop
      vertex -32.2 21 -1.5
      vertex -32.2 14.75 8
      vertex -32.2 21 15
    endloop
  endfacet
  facet normal -1 0 0
    outer loop
      vertex -32.2 21 -1.5
      vertex -32.2 14.7214 7.81974
      vertex -32.2 14.75 8
    endloop
  endfacet
  facet normal -1 0 0
    outer loop
      vertex -32.2 21 -1.5
      vertex -32.2 14.6643 7.45922
      vertex -32.2 14.7214 7.81974
    endloop
  endfacet
  facet normal -1 0 0
    outer loop
      vertex -32.2 21 -1.5
      vertex -32.2 14.4158 6.97138
      vertex -32.2 14.6643 7.45922
    endloop
  endfacet
  facet normal -1 0 0
    outer loop
      vertex -32.2 21 -1.5
      vertex -32.2 14.0286 6.58422
      vertex -32.2 14.4158 6.97138
    endloop
  endfacet
  facet normal -1 0 0
    outer loop
      vertex -32.2 21 -1.5
      vertex -32.2 13.5408 6.33565
      vertex -32.2 14.0286 6.58422
    endloop
  endfacet
  facet normal -1 0 0
    outer loop
      vertex -32.2 21 -1.5
      vertex -32.2 13.1803 6.27855
      vertex -32.2 13.5408 6.33565
    endloop
  endfacet
  facet normal -1 0 0
    outer loop
      vertex -32.2 21 -1.5
      vertex -32.2 13 6.25
      vertex -32.2 13.1803 6.27855
    endloop
  endfacet
  facet normal -1 0 0
    outer loop
      vertex -32.2 21 -1.5
      vertex -32.2 12.8197 6.27855
      vertex -32.2 13 6.25
    endloop
  endfacet
  facet normal -1 0 0
    outer loop
      vertex -32.2 21 -1.5
      vertex -32.2 12.4592 6.33565
      vertex -32.2 12.8197 6.27855
    endloop
  endfacet
  facet normal -1 0 0
    outer loop
      vertex -32.2 21 -1.5
      vertex -32.2 11.9714 6.58422
      vertex -32.2 12.4592 6.33565
    endloop
  endfacet
  facet normal -1 0 0
    outer loop
      vertex -32.2 11.2786 7.81974
      vertex -32.2 -11.25 8
      vertex -32.2 11.25 8
    endloop
  endfacet
  facet normal -1 0 0
    outer loop
      vertex -32.2 -11.2786 7.81974
      vertex -32.2 11.2786 7.81974
      vertex -32.2 11.3357 7.45922
    endloop
  endfacet
  facet normal -1 0 0
    outer loop
      vertex -32.2 -11.3357 7.45922
      vertex -32.2 11.3357 7.45922
      vertex -32.2 11.5842 6.97138
    endloop
  endfacet
  facet normal -1 0 0
    outer loop
      vertex -32.2 -11.5842 6.97138
      vertex -32.2 11.5842 6.97138
      vertex -32.2 11.9714 6.58422
    endloop
  endfacet
  facet normal -1 0 0
    outer loop
      vertex -32.2 -11.9714 6.58422
      vertex -32.2 11.9714 6.58422
      vertex -32.2 21 -1.5
    endloop
  endfacet
  facet normal -1 0 0
    outer loop
      vertex -32.2 11.2786 7.81974
      vertex -32.2 -11.2786 7.81974
      vertex -32.2 -11.25 8
    endloop
  endfacet
  facet normal -1 0 0
    outer loop
      vertex -32.2 11.3357 7.45922
      vertex -32.2 -11.3357 7.45922
      vertex -32.2 -11.2786 7.81974
    endloop
  endfacet
  facet normal -1 0 0
    outer loop
      vertex -32.2 11.5842 6.97138
      vertex -32.2 -11.5842 6.97138
      vertex -32.2 -11.3357 7.45922
    endloop
  endfacet
  facet normal -1 0 0
    outer loop
      vertex -32.2 11.9714 6.58422
      vertex -32.2 -11.9714 6.58422
      vertex -32.2 -11.5842 6.97138
    endloop
  endfacet
  facet normal -1 0 0
    outer loop
      vertex -32.2 -21 -1.5
      vertex -32.2 -11.9714 6.58422
      vertex -32.2 21 -1.5
    endloop
  endfacet
  facet normal -1 0 0
    outer loop
      vertex -32.2 -11.9714 6.58422
      vertex -32.2 -21 -1.5
      vertex -32.2 -12.4592 6.33565
    endloop
  endfacet
  facet normal -1 0 0
    outer loop
      vertex -32.2 -12.4592 6.33565
      vertex -32.2 -21 -1.5
      vertex -32.2 -12.8197 6.27855
    endloop
  endfacet
  facet normal -1 0 0
    outer loop
      vertex -32.2 -12.8197 6.27855
      vertex -32.2 -21 -1.5
      vertex -32.2 -13 6.25
    endloop
  endfacet
  facet normal -1 -0 0
    outer loop
      vertex -32.2 -13 6.25
      vertex -32.2 -21 -1.5
      vertex -32.2 -13.1803 6.27855
    endloop
  endfacet
  facet normal -1 -0 0
    outer loop
      vertex -32.2 -14.7214 7.81974
      vertex -32.2 -21 -1.5
      vertex -32.2 -14.75 8
    endloop
  endfacet
  facet normal -1 -0 0
    outer loop
      vertex -32.2 -14.6643 7.45922
      vertex -32.2 -21 -1.5
      vertex -32.2 -14.7214 7.81974
    endloop
  endfacet
  facet normal -1 -0 0
    outer loop
      vertex -32.2 -14.4158 6.97138
      vertex -32.2 -21 -1.5
      vertex -32.2 -14.6643 7.45922
    endloop
  endfacet
  facet normal -1 -0 0
    outer loop
      vertex -32.2 -14.0286 6.58422
      vertex -32.2 -21 -1.5
      vertex -32.2 -14.4158 6.97138
    endloop
  endfacet
  facet normal -1 -0 0
    outer loop
      vertex -32.2 -13.5408 6.33565
      vertex -32.2 -21 -1.5
      vertex -32.2 -14.0286 6.58422
    endloop
  endfacet
  facet normal -1 -0 0
    outer loop
      vertex -32.2 -13.1803 6.27855
      vertex -32.2 -21 -1.5
      vertex -32.2 -13.5408 6.33565
    endloop
  endfacet
  facet normal -1 0 0
    outer loop
      vertex -32.2 14.6929 8.36052
      vertex -32.2 21 15
      vertex -32.2 14.75 8
    endloop
  endfacet
  facet normal -1 0 0
    outer loop
      vertex -32.2 14.6643 8.54078
      vertex -32.2 21 15
      vertex -32.2 14.6929 8.36052
    endloop
  endfacet
  facet normal -1 0 0
    outer loop
      vertex -32.2 14.4158 9.02862
      vertex -32.2 21 15
      vertex -32.2 14.6643 8.54078
    endloop
  endfacet
  facet normal -1 0 0
    outer loop
      vertex -32.2 14.0286 9.41578
      vertex -32.2 21 15
      vertex -32.2 14.4158 9.02862
    endloop
  endfacet
  facet normal -1 0 0
    outer loop
      vertex -32.2 13.5408 9.66435
      vertex -32.2 21 15
      vertex -32.2 14.0286 9.41578
    endloop
  endfacet
  facet normal -1 0 0
    outer loop
      vertex -32.2 13 9.75
      vertex -32.2 21 15
      vertex -32.2 13.5408 9.66435
    endloop
  endfacet
  facet normal -1 0 0
    outer loop
      vertex -32.2 12.4592 9.66435
      vertex -32.2 21 15
      vertex -32.2 13 9.75
    endloop
  endfacet
  facet normal -1 0 0
    outer loop
      vertex -32.2 -12.4592 9.66435
      vertex -32.2 12.4592 9.66435
      vertex -32.2 11.9714 9.41578
    endloop
  endfacet
  facet normal -1 0 0
    outer loop
      vertex -32.2 -11.25 8
      vertex -32.2 11.3071 8.36052
      vertex -32.2 11.25 8
    endloop
  endfacet
  facet normal -1 0 0
    outer loop
      vertex -32.2 -11.3071 8.36052
      vertex -32.2 11.3071 8.36052
      vertex -32.2 -11.25 8
    endloop
  endfacet
  facet normal -1 0 0
    outer loop
      vertex -32.2 11.3071 8.36052
      vertex -32.2 -11.3071 8.36052
      vertex -32.2 11.3357 8.54078
    endloop
  endfacet
  facet normal -1 0 0
    outer loop
      vertex -32.2 -11.3357 8.54078
      vertex -32.2 11.3357 8.54078
      vertex -32.2 -11.3071 8.36052
    endloop
  endfacet
  facet normal -1 0 0
    outer loop
      vertex -32.2 11.3357 8.54078
      vertex -32.2 -11.3357 8.54078
      vertex -32.2 11.5842 9.02862
    endloop
  endfacet
  facet normal -1 0 0
    outer loop
      vertex -32.2 -11.5842 9.02862
      vertex -32.2 11.5842 9.02862
      vertex -32.2 -11.3357 8.54078
    endloop
  endfacet
  facet normal -1 0 0
    outer loop
      vertex -32.2 11.5842 9.02862
      vertex -32.2 -11.5842 9.02862
      vertex -32.2 11.9714 9.41578
    endloop
  endfacet
  facet normal -1 0 0
    outer loop
      vertex -32.2 -11.9714 9.41578
      vertex -32.2 11.9714 9.41578
      vertex -32.2 -11.5842 9.02862
    endloop
  endfacet
  facet normal -1 0 0
    outer loop
      vertex -32.2 -12.4592 9.66435
      vertex -32.2 11.9714 9.41578
      vertex -32.2 -11.9714 9.41578
    endloop
  endfacet
  facet normal -1 0 0
    outer loop
      vertex -32.2 12.4592 9.66435
      vertex -32.2 -12.4592 9.66435
      vertex -32.2 21 15
    endloop
  endfacet
  facet normal -1 0 0
    outer loop
      vertex -32.2 -21 15
      vertex -32.2 -12.4592 9.66435
      vertex -32.2 -13 9.75
    endloop
  endfacet
  facet normal -1 0 0
    outer loop
      vertex -32.2 -21 15
      vertex -32.2 -14.6929 8.36052
      vertex -32.2 -14.75 8
    endloop
  endfacet
  facet normal -1 0 0
    outer loop
      vertex -32.2 -21 15
      vertex -32.2 -14.75 8
      vertex -32.2 -21 -1.5
    endloop
  endfacet
  facet normal -1 0 0
    outer loop
      vertex -32.2 -14.6929 8.36052
      vertex -32.2 -21 15
      vertex -32.2 -14.6643 8.54078
    endloop
  endfacet
  facet normal -1 0 0
    outer loop
      vertex -32.2 -12.4592 9.66435
      vertex -32.2 -21 15
      vertex -32.2 21 15
    endloop
  endfacet
  facet normal -1 0 0
    outer loop
      vertex -32.2 -13.5408 9.66435
      vertex -32.2 -21 15
      vertex -32.2 -13 9.75
    endloop
  endfacet
  facet normal -1 0 0
    outer loop
      vertex -32.2 -14.0286 9.41578
      vertex -32.2 -21 15
      vertex -32.2 -13.5408 9.66435
    endloop
  endfacet
  facet normal -1 0 0
    outer loop
      vertex -32.2 -14.4158 9.02862
      vertex -32.2 -21 15
      vertex -32.2 -14.0286 9.41578
    endloop
  endfacet
  facet normal -1 0 0
    outer loop
      vertex -32.2 -14.6643 8.54078
      vertex -32.2 -21 15
      vertex -32.2 -14.4158 9.02862
    endloop
  endfacet
  facet normal -0 0 1
    outer loop
      vertex -22.0601 4.40471 1.5
      vertex -21.95 -5.1 1.5
      vertex -21.95 5.1 1.5
    endloop
  endfacet
  facet normal 0 0 1
    outer loop
      vertex -22.0601 4.40471 1.5
      vertex -22.0601 -4.40471 1.5
      vertex -21.95 -5.1 1.5
    endloop
  endfacet
  facet normal -0 0 1
    outer loop
      vertex -22.3797 3.77748 1.5
      vertex -22.0601 -4.40471 1.5
      vertex -22.0601 4.40471 1.5
    endloop
  endfacet
  facet normal 0 0 1
    outer loop
      vertex -22.3797 3.77748 1.5
      vertex -22.3797 -3.77748 1.5
      vertex -22.0601 -4.40471 1.5
    endloop
  endfacet
  facet normal -0 0 1
    outer loop
      vertex -22.8775 3.27971 1.5
      vertex -22.3797 -3.77748 1.5
      vertex -22.3797 3.77748 1.5
    endloop
  endfacet
  facet normal 0 0 1
    outer loop
      vertex -22.8775 3.27971 1.5
      vertex -22.8775 -3.27971 1.5
      vertex -22.3797 -3.77748 1.5
    endloop
  endfacet
  facet normal -0 0 1
    outer loop
      vertex -23.5047 2.96012 1.5
      vertex -22.8775 -3.27971 1.5
      vertex -22.8775 3.27971 1.5
    endloop
  endfacet
  facet normal 0 0 1
    outer loop
      vertex -23.5047 2.96012 1.5
      vertex -23.5047 -2.96012 1.5
      vertex -22.8775 -3.27971 1.5
    endloop
  endfacet
  facet normal -0 0 1
    outer loop
      vertex -24.2 2.85 1.5
      vertex -23.5047 -2.96012 1.5
      vertex -23.5047 2.96012 1.5
    endloop
  endfacet
  facet normal 0 0 1
    outer loop
      vertex -24.2 2.85 1.5
      vertex -24.2 -2.85 1.5
      vertex -23.5047 -2.96012 1.5
    endloop
  endfacet
  facet normal 0 0 1
    outer loop
      vertex -24.8953 2.96012 1.5
      vertex -24.2 -2.85 1.5
      vertex -24.2 2.85 1.5
    endloop
  endfacet
  facet normal 0 0 1
    outer loop
      vertex -24.8953 2.96012 1.5
      vertex -24.8953 -2.96012 1.5
      vertex -24.2 -2.85 1.5
    endloop
  endfacet
  facet normal 0 0 1
    outer loop
      vertex -25.5225 3.27971 1.5
      vertex -24.8953 -2.96012 1.5
      vertex -24.8953 2.96012 1.5
    endloop
  endfacet
  facet normal 0 0 1
    outer loop
      vertex -25.5225 3.27971 1.5
      vertex -25.5225 -3.27971 1.5
      vertex -24.8953 -2.96012 1.5
    endloop
  endfacet
  facet normal 0 0 1
    outer loop
      vertex -26.0203 3.77748 1.5
      vertex -25.5225 -3.27971 1.5
      vertex -25.5225 3.27971 1.5
    endloop
  endfacet
  facet normal 0 0 1
    outer loop
      vertex -26.0203 3.77748 1.5
      vertex -26.0203 -3.77748 1.5
      vertex -25.5225 -3.27971 1.5
    endloop
  endfacet
  facet normal 0 0 1
    outer loop
      vertex -26.3399 4.40471 1.5
      vertex -26.0203 -3.77748 1.5
      vertex -26.0203 3.77748 1.5
    endloop
  endfacet
  facet normal 0 0 1
    outer loop
      vertex -26.3399 4.40471 1.5
      vertex -26.3399 -4.40471 1.5
      vertex -26.0203 -3.77748 1.5
    endloop
  endfacet
  facet normal 0 0 1
    outer loop
      vertex -26.45 5.1 1.5
      vertex -26.3399 -4.40471 1.5
      vertex -26.3399 4.40471 1.5
    endloop
  endfacet
  facet normal 0 0 1
    outer loop
      vertex -26.3399 -4.40471 1.5
      vertex -26.45 5.1 1.5
      vertex -26.45 -5.1 1.5
    endloop
  endfacet
  facet normal -0 0 1
    outer loop
      vertex 26.3399 4.40471 1.5
      vertex 26.45 -5.1 1.5
      vertex 26.45 5.1 1.5
    endloop
  endfacet
  facet normal 0 0 1
    outer loop
      vertex 26.3399 4.40471 1.5
      vertex 26.3399 -4.40471 1.5
      vertex 26.45 -5.1 1.5
    endloop
  endfacet
  facet normal -0 0 1
    outer loop
      vertex 26.0203 3.77748 1.5
      vertex 26.3399 -4.40471 1.5
      vertex 26.3399 4.40471 1.5
    endloop
  endfacet
  facet normal 0 0 1
    outer loop
      vertex 26.0203 3.77748 1.5
      vertex 26.0203 -3.77748 1.5
      vertex 26.3399 -4.40471 1.5
    endloop
  endfacet
  facet normal -0 0 1
    outer loop
      vertex 25.5225 3.27971 1.5
      vertex 26.0203 -3.77748 1.5
      vertex 26.0203 3.77748 1.5
    endloop
  endfacet
  facet normal 0 0 1
    outer loop
      vertex 25.5225 3.27971 1.5
      vertex 25.5225 -3.27971 1.5
      vertex 26.0203 -3.77748 1.5
    endloop
  endfacet
  facet normal -0 0 1
    outer loop
      vertex 24.8953 2.96012 1.5
      vertex 25.5225 -3.27971 1.5
      vertex 25.5225 3.27971 1.5
    endloop
  endfacet
  facet normal 0 0 1
    outer loop
      vertex 24.8953 2.96012 1.5
      vertex 24.8953 -2.96012 1.5
      vertex 25.5225 -3.27971 1.5
    endloop
  endfacet
  facet normal -0 0 1
    outer loop
      vertex 24.2 2.85 1.5
      vertex 24.8953 -2.96012 1.5
      vertex 24.8953 2.96012 1.5
    endloop
  endfacet
  facet normal 0 0 1
    outer loop
      vertex 24.2 2.85 1.5
      vertex 24.2 -2.85 1.5
      vertex 24.8953 -2.96012 1.5
    endloop
  endfacet
  facet normal 0 0 1
    outer loop
      vertex 23.5047 2.96012 1.5
      vertex 24.2 -2.85 1.5
      vertex 24.2 2.85 1.5
    endloop
  endfacet
  facet normal 0 0 1
    outer loop
      vertex 23.5047 2.96012 1.5
      vertex 23.5047 -2.96012 1.5
      vertex 24.2 -2.85 1.5
    endloop
  endfacet
  facet normal 0 0 1
    outer loop
      vertex 22.8775 3.27971 1.5
      vertex 23.5047 -2.96012 1.5
      vertex 23.5047 2.96012 1.5
    endloop
  endfacet
  facet normal 0 0 1
    outer loop
      vertex 22.8775 3.27971 1.5
      vertex 22.8775 -3.27971 1.5
      vertex 23.5047 -2.96012 1.5
    endloop
  endfacet
  facet normal 0 0 1
    outer loop
      vertex 22.3797 3.77748 1.5
      vertex 22.8775 -3.27971 1.5
      vertex 22.8775 3.27971 1.5
    endloop
  endfacet
  facet normal 0 0 1
    outer loop
      vertex 22.3797 3.77748 1.5
      vertex 22.3797 -3.77748 1.5
      vertex 22.8775 -3.27971 1.5
    endloop
  endfacet
  facet normal 0 0 1
    outer loop
      vertex 22.0601 4.40471 1.5
      vertex 22.3797 -3.77748 1.5
      vertex 22.3797 3.77748 1.5
    endloop
  endfacet
  facet normal 0 0 1
    outer loop
      vertex 22.0601 4.40471 1.5
      vertex 22.0601 -4.40471 1.5
      vertex 22.3797 -3.77748 1.5
    endloop
  endfacet
  facet normal 0 0 1
    outer loop
      vertex 21.95 5.1 1.5
      vertex 22.0601 -4.40471 1.5
      vertex 22.0601 4.40471 1.5
    endloop
  endfacet
  facet normal 0 0 1
    outer loop
      vertex 22.0601 -4.40471 1.5
      vertex 21.95 5.1 1.5
      vertex 21.95 -5.1 1.5
    endloop
  endfacet
  facet normal 0 0 1
    outer loop
      vertex 32.2 18 1.5
      vertex 26.45 5.1 1.5
      vertex 32.2 -18 1.5
    endloop
  endfacet
  facet normal 0 0 1
    outer loop
      vertex 32.2 18 1.5
      vertex 26.3399 5.79529 1.5
      vertex 26.45 5.1 1.5
    endloop
  endfacet
  facet normal 0 0 1
    outer loop
      vertex 32.2 18 1.5
      vertex 26.0203 6.42252 1.5
      vertex 26.3399 5.79529 1.5
    endloop
  endfacet
  facet normal 0 0 1
    outer loop
      vertex 32.2 18 1.5
      vertex 25.5225 6.92029 1.5
      vertex 26.0203 6.42252 1.5
    endloop
  endfacet
  facet normal 0 0 1
    outer loop
      vertex 32.2 18 1.5
      vertex 24.8953 7.23988 1.5
      vertex 25.5225 6.92029 1.5
    endloop
  endfacet
  facet normal -0 0 1
    outer loop
      vertex 21.3 10.9 1.5
      vertex 24.8953 7.23988 1.5
      vertex 32.2 18 1.5
    endloop
  endfacet
  facet normal 0 0 1
    outer loop
      vertex 24.8953 7.23988 1.5
      vertex 21.3 10.9 1.5
      vertex 24.2 7.35 1.5
    endloop
  endfacet
  facet normal 0 0 1
    outer loop
      vertex 24.2 7.35 1.5
      vertex 21.3 10.9 1.5
      vertex 23.5047 7.23988 1.5
    endloop
  endfacet
  facet normal 0 0 1
    outer loop
      vertex 23.5047 7.23988 1.5
      vertex 21.3 10.9 1.5
      vertex 22.8775 6.92029 1.5
    endloop
  endfacet
  facet normal 0 0 1
    outer loop
      vertex 21.95 5.1 1.5
      vertex 21.3 10.9 1.5
      vertex 21.95 -5.1 1.5
    endloop
  endfacet
  facet normal 0 0 1
    outer loop
      vertex 22.0601 5.79529 1.5
      vertex 21.3 10.9 1.5
      vertex 21.95 5.1 1.5
    endloop
  endfacet
  facet normal 0 0 1
    outer loop
      vertex 22.3797 6.42252 1.5
      vertex 21.3 10.9 1.5
      vertex 22.0601 5.79529 1.5
    endloop
  endfacet
  facet normal 0 0 1
    outer loop
      vertex 22.8775 6.92029 1.5
      vertex 21.3 10.9 1.5
      vertex 22.3797 6.42252 1.5
    endloop
  endfacet
  facet normal -0 0 1
    outer loop
      vertex -29.2 18 1.5
      vertex 21.3 10.9 1.5
      vertex 32.2 18 1.5
    endloop
  endfacet
  facet normal 0 0 1
    outer loop
      vertex -21.3 10.9 1.5
      vertex -21.95 5.1 1.5
      vertex -21.3 -10.9 1.5
    endloop
  endfacet
  facet normal 0 0 1
    outer loop
      vertex -21.3 10.9 1.5
      vertex -22.0601 5.79529 1.5
      vertex -21.95 5.1 1.5
    endloop
  endfacet
  facet normal 0 0 1
    outer loop
      vertex -21.3 10.9 1.5
      vertex -22.3797 6.42252 1.5
      vertex -22.0601 5.79529 1.5
    endloop
  endfacet
  facet normal 0 0 1
    outer loop
      vertex -21.3 10.9 1.5
      vertex -22.8775 6.92029 1.5
      vertex -22.3797 6.42252 1.5
    endloop
  endfacet
  facet normal 0 0 1
    outer loop
      vertex -21.3 10.9 1.5
      vertex -23.5047 7.23988 1.5
      vertex -22.8775 6.92029 1.5
    endloop
  endfacet
  facet normal 0 0 1
    outer loop
      vertex -21.3 10.9 1.5
      vertex -24.2 7.35 1.5
      vertex -23.5047 7.23988 1.5
    endloop
  endfacet
  facet normal 0 0 1
    outer loop
      vertex -21.3 10.9 1.5
      vertex -24.8953 7.23988 1.5
      vertex -24.2 7.35 1.5
    endloop
  endfacet
  facet normal 0 0 1
    outer loop
      vertex -29.2 18 1.5
      vertex -24.8953 7.23988 1.5
      vertex -21.3 10.9 1.5
    endloop
  endfacet
  facet normal 0 0 1
    outer loop
      vertex -26.45 5.1 1.5
      vertex -29.2 18 1.5
      vertex -26.45 -5.1 1.5
    endloop
  endfacet
  facet normal 0 0 1
    outer loop
      vertex -26.3399 5.79529 1.5
      vertex -29.2 18 1.5
      vertex -26.45 5.1 1.5
    endloop
  endfacet
  facet normal 0 0 1
    outer loop
      vertex -26.0203 6.42252 1.5
      vertex -29.2 18 1.5
      vertex -26.3399 5.79529 1.5
    endloop
  endfacet
  facet normal 0 0 1
    outer loop
      vertex -25.5225 6.92029 1.5
      vertex -29.2 18 1.5
      vertex -26.0203 6.42252 1.5
    endloop
  endfacet
  facet normal 0 0 1
    outer loop
      vertex -24.8953 7.23988 1.5
      vertex -29.2 18 1.5
      vertex -25.5225 6.92029 1.5
    endloop
  endfacet
  facet normal 0 0 1
    outer loop
      vertex 21.3 10.9 1.5
      vertex -29.2 18 1.5
      vertex -21.3 10.9 1.5
    endloop
  endfacet
  facet normal -0 0 1
    outer loop
      vertex 26.45 -5.1 1.5
      vertex 32.2 -18 1.5
      vertex 26.45 5.1 1.5
    endloop
  endfacet
  facet normal -0 0 1
    outer loop
      vertex 26.3399 -5.79529 1.5
      vertex 32.2 -18 1.5
      vertex 26.45 -5.1 1.5
    endloop
  endfacet
  facet normal -0 0 1
    outer loop
      vertex 26.0203 -6.42252 1.5
      vertex 32.2 -18 1.5
      vertex 26.3399 -5.79529 1.5
    endloop
  endfacet
  facet normal -0 0 1
    outer loop
      vertex 25.5225 -6.92029 1.5
      vertex 32.2 -18 1.5
      vertex 26.0203 -6.42252 1.5
    endloop
  endfacet
  facet normal -0 0 1
    outer loop
      vertex 24.8953 -7.23988 1.5
      vertex 32.2 -18 1.5
      vertex 25.5225 -6.92029 1.5
    endloop
  endfacet
  facet normal 0 0 1
    outer loop
      vertex 21.3 -10.9 1.5
      vertex 24.8953 -7.23988 1.5
      vertex 24.2 -7.35 1.5
    endloop
  endfacet
  facet normal 0 0 1
    outer loop
      vertex 21.3 -10.9 1.5
      vertex 24.2 -7.35 1.5
      vertex 23.5047 -7.23988 1.5
    endloop
  endfacet
  facet normal 0 0 1
    outer loop
      vertex 21.3 -10.9 1.5
      vertex 23.5047 -7.23988 1.5
      vertex 22.8775 -6.92029 1.5
    endloop
  endfacet
  facet normal 0 0 1
    outer loop
      vertex 21.3 -10.9 1.5
      vertex 22.8775 -6.92029 1.5
      vertex 22.3797 -6.42252 1.5
    endloop
  endfacet
  facet normal 0 0 1
    outer loop
      vertex 21.3 -10.9 1.5
      vertex 21.95 -5.1 1.5
      vertex 21.3 10.9 1.5
    endloop
  endfacet
  facet normal 0 0 1
    outer loop
      vertex 21.3 -10.9 1.5
      vertex 22.0601 -5.79529 1.5
      vertex 21.95 -5.1 1.5
    endloop
  endfacet
  facet normal 0 0 1
    outer loop
      vertex 21.3 -10.9 1.5
      vertex 22.3797 -6.42252 1.5
      vertex 22.0601 -5.79529 1.5
    endloop
  endfacet
  facet normal 0 0 1
    outer loop
      vertex 24.8953 -7.23988 1.5
      vertex 21.3 -10.9 1.5
      vertex 32.2 -18 1.5
    endloop
  endfacet
  facet normal 0 0 1
    outer loop
      vertex -29.2 -18 1.5
      vertex 21.3 -10.9 1.5
      vertex -21.3 -10.9 1.5
    endloop
  endfacet
  facet normal -0 0 1
    outer loop
      vertex -21.95 -5.1 1.5
      vertex -21.3 -10.9 1.5
      vertex -21.95 5.1 1.5
    endloop
  endfacet
  facet normal -0 0 1
    outer loop
      vertex -22.0601 -5.79529 1.5
      vertex -21.3 -10.9 1.5
      vertex -21.95 -5.1 1.5
    endloop
  endfacet
  facet normal -0 0 1
    outer loop
      vertex -22.3797 -6.42252 1.5
      vertex -21.3 -10.9 1.5
      vertex -22.0601 -5.79529 1.5
    endloop
  endfacet
  facet normal -0 0 1
    outer loop
      vertex -22.8775 -6.92029 1.5
      vertex -21.3 -10.9 1.5
      vertex -22.3797 -6.42252 1.5
    endloop
  endfacet
  facet normal -0 0 1
    outer loop
      vertex -23.5047 -7.23988 1.5
      vertex -21.3 -10.9 1.5
      vertex -22.8775 -6.92029 1.5
    endloop
  endfacet
  facet normal -0 0 1
    outer loop
      vertex -24.2 -7.35 1.5
      vertex -21.3 -10.9 1.5
      vertex -23.5047 -7.23988 1.5
    endloop
  endfacet
  facet normal 0 0 1
    outer loop
      vertex -24.8953 -7.23988 1.5
      vertex -21.3 -10.9 1.5
      vertex -24.2 -7.35 1.5
    endloop
  endfacet
  facet normal 0 0 1
    outer loop
      vertex -29.2 -18 1.5
      vertex -24.8953 -7.23988 1.5
      vertex -25.5225 -6.92029 1.5
    endloop
  endfacet
  facet normal 0 0 1
    outer loop
      vertex 21.3 -10.9 1.5
      vertex -29.2 -18 1.5
      vertex 32.2 -18 1.5
    endloop
  endfacet
  facet normal 0 0 1
    outer loop
      vertex -24.8953 -7.23988 1.5
      vertex -29.2 -18 1.5
      vertex -21.3 -10.9 1.5
    endloop
  endfacet
  facet normal 0 0 1
    outer loop
      vertex -26.0203 -6.42252 1.5
      vertex -29.2 -18 1.5
      vertex -25.5225 -6.92029 1.5
    endloop
  endfacet
  facet normal 0 0 1
    outer loop
      vertex -26.3399 -5.79529 1.5
      vertex -29.2 -18 1.5
      vertex -26.0203 -6.42252 1.5
    endloop
  endfacet
  facet normal 0 0 1
    outer loop
      vertex -26.45 -5.1 1.5
      vertex -29.2 -18 1.5
      vertex -26.3399 -5.79529 1.5
    endloop
  endfacet
  facet normal 0 0 1
    outer loop
      vertex -29.2 -18 1.5
      vertex -26.45 -5.1 1.5
      vertex -29.2 18 1.5
    endloop
  endfacet
  facet normal 1 -0 0
    outer loop
      vertex 32.2 18 1.5
      vertex 32.2 21 -1.5
      vertex 32.2 21 1.5
    endloop
  endfacet
  facet normal 1 -0 0
    outer loop
      vertex 32.2 -18 1.5
      vertex 32.2 21 -1.5
      vertex 32.2 18 1.5
    endloop
  endfacet
  facet normal 1 0 0
    outer loop
      vertex 32.2 -21 -1.5
      vertex 32.2 -18 1.5
      vertex 32.2 -21 1.5
    endloop
  endfacet
  facet normal 1 0 0
    outer loop
      vertex 32.2 -18 1.5
      vertex 32.2 -21 -1.5
      vertex 32.2 21 -1.5
    endloop
  endfacet
  facet normal 0 0 -1
    outer loop
      vertex -22.0601 -4.40471 -1.5
      vertex -21.95 5.1 -1.5
      vertex -21.95 -5.1 -1.5
    endloop
  endfacet
  facet normal 0 0 -1
    outer loop
      vertex -22.0601 -4.40471 -1.5
      vertex -22.0601 4.40471 -1.5
      vertex -21.95 5.1 -1.5
    endloop
  endfacet
  facet normal 0 0 -1
    outer loop
      vertex -22.3797 -3.77748 -1.5
      vertex -22.0601 4.40471 -1.5
      vertex -22.0601 -4.40471 -1.5
    endloop
  endfacet
  facet normal 0 0 -1
    outer loop
      vertex -22.3797 -3.77748 -1.5
      vertex -22.3797 3.77748 -1.5
      vertex -22.0601 4.40471 -1.5
    endloop
  endfacet
  facet normal 0 0 -1
    outer loop
      vertex -22.8775 -3.27971 -1.5
      vertex -22.3797 3.77748 -1.5
      vertex -22.3797 -3.77748 -1.5
    endloop
  endfacet
  facet normal 0 0 -1
    outer loop
      vertex -22.8775 -3.27971 -1.5
      vertex -22.8775 3.27971 -1.5
      vertex -22.3797 3.77748 -1.5
    endloop
  endfacet
  facet normal 0 0 -1
    outer loop
      vertex -23.5047 -2.96012 -1.5
      vertex -22.8775 3.27971 -1.5
      vertex -22.8775 -3.27971 -1.5
    endloop
  endfacet
  facet normal 0 0 -1
    outer loop
      vertex -23.5047 -2.96012 -1.5
      vertex -23.5047 2.96012 -1.5
      vertex -22.8775 3.27971 -1.5
    endloop
  endfacet
  facet normal 0 0 -1
    outer loop
      vertex -24.2 -2.85 -1.5
      vertex -23.5047 2.96012 -1.5
      vertex -23.5047 -2.96012 -1.5
    endloop
  endfacet
  facet normal 0 0 -1
    outer loop
      vertex -24.2 -2.85 -1.5
      vertex -24.2 2.85 -1.5
      vertex -23.5047 2.96012 -1.5
    endloop
  endfacet
  facet normal 0 0 -1
    outer loop
      vertex -24.8953 -2.96012 -1.5
      vertex -24.2 2.85 -1.5
      vertex -24.2 -2.85 -1.5
    endloop
  endfacet
  facet normal 0 0 -1
    outer loop
      vertex -24.8953 -2.96012 -1.5
      vertex -24.8953 2.96012 -1.5
      vertex -24.2 2.85 -1.5
    endloop
  endfacet
  facet normal 0 0 -1
    outer loop
      vertex -25.5225 -3.27971 -1.5
      vertex -24.8953 2.96012 -1.5
      vertex -24.8953 -2.96012 -1.5
    endloop
  endfacet
  facet normal 0 0 -1
    outer loop
      vertex -25.5225 -3.27971 -1.5
      vertex -25.5225 3.27971 -1.5
      vertex -24.8953 2.96012 -1.5
    endloop
  endfacet
  facet normal 0 0 -1
    outer loop
      vertex -26.0203 -3.77748 -1.5
      vertex -25.5225 3.27971 -1.5
      vertex -25.5225 -3.27971 -1.5
    endloop
  endfacet
  facet normal 0 0 -1
    outer loop
      vertex -26.0203 -3.77748 -1.5
      vertex -26.0203 3.77748 -1.5
      vertex -25.5225 3.27971 -1.5
    endloop
  endfacet
  facet normal 0 0 -1
    outer loop
      vertex -26.3399 -4.40471 -1.5
      vertex -26.0203 3.77748 -1.5
      vertex -26.0203 -3.77748 -1.5
    endloop
  endfacet
  facet normal 0 0 -1
    outer loop
      vertex -26.3399 -4.40471 -1.5
      vertex -26.3399 4.40471 -1.5
      vertex -26.0203 3.77748 -1.5
    endloop
  endfacet
  facet normal 0 0 -1
    outer loop
      vertex -26.45 -5.1 -1.5
      vertex -26.3399 4.40471 -1.5
      vertex -26.3399 -4.40471 -1.5
    endloop
  endfacet
  facet normal -0 0 -1
    outer loop
      vertex -26.3399 4.40471 -1.5
      vertex -26.45 -5.1 -1.5
      vertex -26.45 5.1 -1.5
    endloop
  endfacet
  facet normal 0 0 -1
    outer loop
      vertex 26.3399 -4.40471 -1.5
      vertex 26.45 5.1 -1.5
      vertex 26.45 -5.1 -1.5
    endloop
  endfacet
  facet normal 0 0 -1
    outer loop
      vertex 26.3399 -4.40471 -1.5
      vertex 26.3399 4.40471 -1.5
      vertex 26.45 5.1 -1.5
    endloop
  endfacet
  facet normal 0 0 -1
    outer loop
      vertex 26.0203 -3.77748 -1.5
      vertex 26.3399 4.40471 -1.5
      vertex 26.3399 -4.40471 -1.5
    endloop
  endfacet
  facet normal 0 0 -1
    outer loop
      vertex 26.0203 -3.77748 -1.5
      vertex 26.0203 3.77748 -1.5
      vertex 26.3399 4.40471 -1.5
    endloop
  endfacet
  facet normal 0 0 -1
    outer loop
      vertex 25.5225 -3.27971 -1.5
      vertex 26.0203 3.77748 -1.5
      vertex 26.0203 -3.77748 -1.5
    endloop
  endfacet
  facet normal 0 0 -1
    outer loop
      vertex 25.5225 -3.27971 -1.5
      vertex 25.5225 3.27971 -1.5
      vertex 26.0203 3.77748 -1.5
    endloop
  endfacet
  facet normal 0 0 -1
    outer loop
      vertex 24.8953 -2.96012 -1.5
      vertex 25.5225 3.27971 -1.5
      vertex 25.5225 -3.27971 -1.5
    endloop
  endfacet
  facet normal 0 0 -1
    outer loop
      vertex 24.8953 -2.96012 -1.5
      vertex 24.8953 2.96012 -1.5
      vertex 25.5225 3.27971 -1.5
    endloop
  endfacet
  facet normal 0 0 -1
    outer loop
      vertex 24.2 -2.85 -1.5
      vertex 24.8953 2.96012 -1.5
      vertex 24.8953 -2.96012 -1.5
    endloop
  endfacet
  facet normal 0 0 -1
    outer loop
      vertex 24.2 -2.85 -1.5
      vertex 24.2 2.85 -1.5
      vertex 24.8953 2.96012 -1.5
    endloop
  endfacet
  facet normal 0 0 -1
    outer loop
      vertex 23.5047 -2.96012 -1.5
      vertex 24.2 2.85 -1.5
      vertex 24.2 -2.85 -1.5
    endloop
  endfacet
  facet normal 0 0 -1
    outer loop
      vertex 23.5047 -2.96012 -1.5
      vertex 23.5047 2.96012 -1.5
      vertex 24.2 2.85 -1.5
    endloop
  endfacet
  facet normal 0 0 -1
    outer loop
      vertex 22.8775 -3.27971 -1.5
      vertex 23.5047 2.96012 -1.5
      vertex 23.5047 -2.96012 -1.5
    endloop
  endfacet
  facet normal 0 0 -1
    outer loop
      vertex 22.8775 -3.27971 -1.5
      vertex 22.8775 3.27971 -1.5
      vertex 23.5047 2.96012 -1.5
    endloop
  endfacet
  facet normal 0 0 -1
    outer loop
      vertex 22.3797 -3.77748 -1.5
      vertex 22.8775 3.27971 -1.5
      vertex 22.8775 -3.27971 -1.5
    endloop
  endfacet
  facet normal 0 0 -1
    outer loop
      vertex 22.3797 -3.77748 -1.5
      vertex 22.3797 3.77748 -1.5
      vertex 22.8775 3.27971 -1.5
    endloop
  endfacet
  facet normal 0 0 -1
    outer loop
      vertex 22.0601 -4.40471 -1.5
      vertex 22.3797 3.77748 -1.5
      vertex 22.3797 -3.77748 -1.5
    endloop
  endfacet
  facet normal 0 0 -1
    outer loop
      vertex 22.0601 -4.40471 -1.5
      vertex 22.0601 4.40471 -1.5
      vertex 22.3797 3.77748 -1.5
    endloop
  endfacet
  facet normal 0 0 -1
    outer loop
      vertex 21.95 -5.1 -1.5
      vertex 22.0601 4.40471 -1.5
      vertex 22.0601 -4.40471 -1.5
    endloop
  endfacet
  facet normal -0 0 -1
    outer loop
      vertex 22.0601 4.40471 -1.5
      vertex 21.95 -5.1 -1.5
      vertex 21.95 5.1 -1.5
    endloop
  endfacet
  facet normal 0 0 -1
    outer loop
      vertex 32.2 -21 -1.5
      vertex 26.45 -5.1 -1.5
      vertex 32.2 21 -1.5
    endloop
  endfacet
  facet normal 0 0 -1
    outer loop
      vertex 32.2 -21 -1.5
      vertex 26.3399 -5.79529 -1.5
      vertex 26.45 -5.1 -1.5
    endloop
  endfacet
  facet normal 0 0 -1
    outer loop
      vertex 32.2 -21 -1.5
      vertex 26.0203 -6.42252 -1.5
      vertex 26.3399 -5.79529 -1.5
    endloop
  endfacet
  facet normal 0 0 -1
    outer loop
      vertex 32.2 -21 -1.5
      vertex 25.5225 -6.92029 -1.5
      vertex 26.0203 -6.42252 -1.5
    endloop
  endfacet
  facet normal 0 0 -1
    outer loop
      vertex 32.2 -21 -1.5
      vertex 24.8953 -7.23988 -1.5
      vertex 25.5225 -6.92029 -1.5
    endloop
  endfacet
  facet normal 0 0 -1
    outer loop
      vertex 21.3 -10.9 -1.5
      vertex 24.8953 -7.23988 -1.5
      vertex 32.2 -21 -1.5
    endloop
  endfacet
  facet normal 0 0 -1
    outer loop
      vertex 24.8953 -7.23988 -1.5
      vertex 21.3 -10.9 -1.5
      vertex 24.2 -7.35 -1.5
    endloop
  endfacet
  facet normal -0 0 -1
    outer loop
      vertex 24.2 -7.35 -1.5
      vertex 21.3 -10.9 -1.5
      vertex 23.5047 -7.23988 -1.5
    endloop
  endfacet
  facet normal -0 0 -1
    outer loop
      vertex 23.5047 -7.23988 -1.5
      vertex 21.3 -10.9 -1.5
      vertex 22.8775 -6.92029 -1.5
    endloop
  endfacet
  facet normal -0 0 -1
    outer loop
      vertex 21.95 -5.1 -1.5
      vertex 21.3 -10.9 -1.5
      vertex 21.95 5.1 -1.5
    endloop
  endfacet
  facet normal -0 0 -1
    outer loop
      vertex 22.0601 -5.79529 -1.5
      vertex 21.3 -10.9 -1.5
      vertex 21.95 -5.1 -1.5
    endloop
  endfacet
  facet normal -0 0 -1
    outer loop
      vertex 22.3797 -6.42252 -1.5
      vertex 21.3 -10.9 -1.5
      vertex 22.0601 -5.79529 -1.5
    endloop
  endfacet
  facet normal -0 0 -1
    outer loop
      vertex 22.8775 -6.92029 -1.5
      vertex 21.3 -10.9 -1.5
      vertex 22.3797 -6.42252 -1.5
    endloop
  endfacet
  facet normal 0 0 -1
    outer loop
      vertex 32.2 -21 -1.5
      vertex -21.3 -10.9 -1.5
      vertex 21.3 -10.9 -1.5
    endloop
  endfacet
  facet normal 0 0 -1
    outer loop
      vertex -21.3 -10.9 -1.5
      vertex -21.95 -5.1 -1.5
      vertex -21.3 10.9 -1.5
    endloop
  endfacet
  facet normal 0 0 -1
    outer loop
      vertex -21.3 -10.9 -1.5
      vertex -22.0601 -5.79529 -1.5
      vertex -21.95 -5.1 -1.5
    endloop
  endfacet
  facet normal 0 0 -1
    outer loop
      vertex -21.3 -10.9 -1.5
      vertex -22.3797 -6.42252 -1.5
      vertex -22.0601 -5.79529 -1.5
    endloop
  endfacet
  facet normal 0 0 -1
    outer loop
      vertex -21.3 -10.9 -1.5
      vertex -22.8775 -6.92029 -1.5
      vertex -22.3797 -6.42252 -1.5
    endloop
  endfacet
  facet normal 0 0 -1
    outer loop
      vertex -21.3 -10.9 -1.5
      vertex -23.5047 -7.23988 -1.5
      vertex -22.8775 -6.92029 -1.5
    endloop
  endfacet
  facet normal 0 0 -1
    outer loop
      vertex -21.3 -10.9 -1.5
      vertex -24.2 -7.35 -1.5
      vertex -23.5047 -7.23988 -1.5
    endloop
  endfacet
  facet normal 0 0 -1
    outer loop
      vertex -21.3 -10.9 -1.5
      vertex -24.8953 -7.23988 -1.5
      vertex -24.2 -7.35 -1.5
    endloop
  endfacet
  facet normal 0 0 -1
    outer loop
      vertex -32.2 -21 -1.5
      vertex -24.8953 -7.23988 -1.5
      vertex -21.3 -10.9 -1.5
    endloop
  endfacet
  facet normal -0 0 -1
    outer loop
      vertex -26.45 -5.1 -1.5
      vertex -32.2 -21 -1.5
      vertex -26.45 5.1 -1.5
    endloop
  endfacet
  facet normal -0 0 -1
    outer loop
      vertex -26.3399 -5.79529 -1.5
      vertex -32.2 -21 -1.5
      vertex -26.45 -5.1 -1.5
    endloop
  endfacet
  facet normal -0 0 -1
    outer loop
      vertex -26.0203 -6.42252 -1.5
      vertex -32.2 -21 -1.5
      vertex -26.3399 -5.79529 -1.5
    endloop
  endfacet
  facet normal -0 0 -1
    outer loop
      vertex -25.5225 -6.92029 -1.5
      vertex -32.2 -21 -1.5
      vertex -26.0203 -6.42252 -1.5
    endloop
  endfacet
  facet normal -0 0 -1
    outer loop
      vertex -24.8953 -7.23988 -1.5
      vertex -32.2 -21 -1.5
      vertex -25.5225 -6.92029 -1.5
    endloop
  endfacet
  facet normal 0 0 -1
    outer loop
      vertex -32.2 -21 -1.5
      vertex -21.3 -10.9 -1.5
      vertex 32.2 -21 -1.5
    endloop
  endfacet
  facet normal 0 0 -1
    outer loop
      vertex 26.45 5.1 -1.5
      vertex 32.2 21 -1.5
      vertex 26.45 -5.1 -1.5
    endloop
  endfacet
  facet normal 0 0 -1
    outer loop
      vertex 26.3399 5.79529 -1.5
      vertex 32.2 21 -1.5
      vertex 26.45 5.1 -1.5
    endloop
  endfacet
  facet normal 0 0 -1
    outer loop
      vertex 26.0203 6.42252 -1.5
      vertex 32.2 21 -1.5
      vertex 26.3399 5.79529 -1.5
    endloop
  endfacet
  facet normal 0 0 -1
    outer loop
      vertex 25.5225 6.92029 -1.5
      vertex 32.2 21 -1.5
      vertex 26.0203 6.42252 -1.5
    endloop
  endfacet
  facet normal 0 0 -1
    outer loop
      vertex 24.8953 7.23988 -1.5
      vertex 32.2 21 -1.5
      vertex 25.5225 6.92029 -1.5
    endloop
  endfacet
  facet normal 0 0 -1
    outer loop
      vertex 21.3 10.9 -1.5
      vertex 24.8953 7.23988 -1.5
      vertex 24.2 7.35 -1.5
    endloop
  endfacet
  facet normal 0 0 -1
    outer loop
      vertex 21.3 10.9 -1.5
      vertex 24.2 7.35 -1.5
      vertex 23.5047 7.23988 -1.5
    endloop
  endfacet
  facet normal 0 0 -1
    outer loop
      vertex 21.3 10.9 -1.5
      vertex 23.5047 7.23988 -1.5
      vertex 22.8775 6.92029 -1.5
    endloop
  endfacet
  facet normal 0 0 -1
    outer loop
      vertex 21.3 10.9 -1.5
      vertex 22.8775 6.92029 -1.5
      vertex 22.3797 6.42252 -1.5
    endloop
  endfacet
  facet normal 0 0 -1
    outer loop
      vertex 21.3 10.9 -1.5
      vertex 21.95 5.1 -1.5
      vertex 21.3 -10.9 -1.5
    endloop
  endfacet
  facet normal 0 0 -1
    outer loop
      vertex 21.3 10.9 -1.5
      vertex 22.0601 5.79529 -1.5
      vertex 21.95 5.1 -1.5
    endloop
  endfacet
  facet normal 0 0 -1
    outer loop
      vertex 21.3 10.9 -1.5
      vertex 22.3797 6.42252 -1.5
      vertex 22.0601 5.79529 -1.5
    endloop
  endfacet
  facet normal 0 0 -1
    outer loop
      vertex 24.8953 7.23988 -1.5
      vertex 21.3 10.9 -1.5
      vertex 32.2 21 -1.5
    endloop
  endfacet
  facet normal 0 0 -1
    outer loop
      vertex -21.3 10.9 -1.5
      vertex 32.2 21 -1.5
      vertex 21.3 10.9 -1.5
    endloop
  endfacet
  facet normal 0 0 -1
    outer loop
      vertex -21.95 5.1 -1.5
      vertex -21.3 10.9 -1.5
      vertex -21.95 -5.1 -1.5
    endloop
  endfacet
  facet normal 0 0 -1
    outer loop
      vertex -22.0601 5.79529 -1.5
      vertex -21.3 10.9 -1.5
      vertex -21.95 5.1 -1.5
    endloop
  endfacet
  facet normal 0 0 -1
    outer loop
      vertex -22.3797 6.42252 -1.5
      vertex -21.3 10.9 -1.5
      vertex -22.0601 5.79529 -1.5
    endloop
  endfacet
  facet normal 0 0 -1
    outer loop
      vertex -22.8775 6.92029 -1.5
      vertex -21.3 10.9 -1.5
      vertex -22.3797 6.42252 -1.5
    endloop
  endfacet
  facet normal 0 0 -1
    outer loop
      vertex -23.5047 7.23988 -1.5
      vertex -21.3 10.9 -1.5
      vertex -22.8775 6.92029 -1.5
    endloop
  endfacet
  facet normal 0 0 -1
    outer loop
      vertex -24.2 7.35 -1.5
      vertex -21.3 10.9 -1.5
      vertex -23.5047 7.23988 -1.5
    endloop
  endfacet
  facet normal 0 0 -1
    outer loop
      vertex -24.8953 7.23988 -1.5
      vertex -21.3 10.9 -1.5
      vertex -24.2 7.35 -1.5
    endloop
  endfacet
  facet normal 0 0 -1
    outer loop
      vertex -32.2 21 -1.5
      vertex -24.8953 7.23988 -1.5
      vertex -25.5225 6.92029 -1.5
    endloop
  endfacet
  facet normal 0 0 -1
    outer loop
      vertex -32.2 21 -1.5
      vertex -26.45 5.1 -1.5
      vertex -32.2 -21 -1.5
    endloop
  endfacet
  facet normal 0 0 -1
    outer loop
      vertex -21.3 10.9 -1.5
      vertex -32.2 21 -1.5
      vertex 32.2 21 -1.5
    endloop
  endfacet
  facet normal 0 0 -1
    outer loop
      vertex -24.8953 7.23988 -1.5
      vertex -32.2 21 -1.5
      vertex -21.3 10.9 -1.5
    endloop
  endfacet
  facet normal 0 0 -1
    outer loop
      vertex -26.0203 6.42252 -1.5
      vertex -32.2 21 -1.5
      vertex -25.5225 6.92029 -1.5
    endloop
  endfacet
  facet normal 0 0 -1
    outer loop
      vertex -26.3399 5.79529 -1.5
      vertex -32.2 21 -1.5
      vertex -26.0203 6.42252 -1.5
    endloop
  endfacet
  facet normal 0 0 -1
    outer loop
      vertex -26.45 5.1 -1.5
      vertex -32.2 21 -1.5
      vertex -26.3399 5.79529 -1.5
    endloop
  endfacet
  facet normal -0 0 1
    outer loop
      vertex -32.2 21 15
      vertex -29.2 18 15
      vertex -29.2 21 15
    endloop
  endfacet
  facet normal 0 0 1
    outer loop
      vertex -29.2 18 15
      vertex -32.2 21 15
      vertex -29.2 -18 15
    endloop
  endfacet
  facet normal 0 0 1
    outer loop
      vertex -32.2 -21 15
      vertex -29.2 -18 15
      vertex -32.2 21 15
    endloop
  endfacet
  facet normal 0 0 1
    outer loop
      vertex -29.2 -18 15
      vertex -32.2 -21 15
      vertex -29.2 -21 15
    endloop
  endfacet
  facet normal 1 0 0
    outer loop
      vertex -29.2 18 15
      vertex -29.2 14.75 8
      vertex -29.2 18 1.5
    endloop
  endfacet
  facet normal 1 0 0
    outer loop
      vertex -29.2 18 15
      vertex -29.2 14.7214 8.18026
      vertex -29.2 14.75 8
    endloop
  endfacet
  facet normal 1 0 0
    outer loop
      vertex -29.2 18 15
      vertex -29.2 14.6643 8.54078
      vertex -29.2 14.7214 8.18026
    endloop
  endfacet
  facet normal 1 0 0
    outer loop
      vertex -29.2 18 15
      vertex -29.2 14.4158 9.02862
      vertex -29.2 14.6643 8.54078
    endloop
  endfacet
  facet normal 1 0 0
    outer loop
      vertex -29.2 18 15
      vertex -29.2 14.0286 9.41578
      vertex -29.2 14.4158 9.02862
    endloop
  endfacet
  facet normal 1 0 0
    outer loop
      vertex -29.2 18 15
      vertex -29.2 13.5408 9.66435
      vertex -29.2 14.0286 9.41578
    endloop
  endfacet
  facet normal 1 0 0
    outer loop
      vertex -29.2 18 15
      vertex -29.2 13 9.75
      vertex -29.2 13.5408 9.66435
    endloop
  endfacet
  facet normal 1 0 0
    outer loop
      vertex -29.2 18 15
      vertex -29.2 12.4592 9.66435
      vertex -29.2 13 9.75
    endloop
  endfacet
  facet normal 1 0 0
    outer loop
      vertex -29.2 18 15
      vertex -29.2 11.9714 9.41578
      vertex -29.2 12.4592 9.66435
    endloop
  endfacet
  facet normal 1 0 0
    outer loop
      vertex -29.2 11.2786 8.18026
      vertex -29.2 -11.25 8
      vertex -29.2 11.25 8
    endloop
  endfacet
  facet normal 1 0 0
    outer loop
      vertex -29.2 -11.2786 8.18026
      vertex -29.2 11.2786 8.18026
      vertex -29.2 11.3357 8.54078
    endloop
  endfacet
  facet normal 1 0 0
    outer loop
      vertex -29.2 -11.3357 8.54078
      vertex -29.2 11.3357 8.54078
      vertex -29.2 11.5842 9.02862
    endloop
  endfacet
  facet normal 1 0 0
    outer loop
      vertex -29.2 -11.5842 9.02862
      vertex -29.2 11.5842 9.02862
      vertex -29.2 11.9714 9.41578
    endloop
  endfacet
  facet normal 1 0 0
    outer loop
      vertex -29.2 -11.9714 9.41578
      vertex -29.2 11.9714 9.41578
      vertex -29.2 18 15
    endloop
  endfacet
  facet normal 1 0 0
    outer loop
      vertex -29.2 11.2786 8.18026
      vertex -29.2 -11.2786 8.18026
      vertex -29.2 -11.25 8
    endloop
  endfacet
  facet normal 1 0 0
    outer loop
      vertex -29.2 11.3357 8.54078
      vertex -29.2 -11.3357 8.54078
      vertex -29.2 -11.2786 8.18026
    endloop
  endfacet
  facet normal 1 0 0
    outer loop
      vertex -29.2 11.5842 9.02862
      vertex -29.2 -11.5842 9.02862
      vertex -29.2 -11.3357 8.54078
    endloop
  endfacet
  facet normal 1 0 0
    outer loop
      vertex -29.2 11.9714 9.41578
      vertex -29.2 -11.9714 9.41578
      vertex -29.2 -11.5842 9.02862
    endloop
  endfacet
  facet normal 1 -0 0
    outer loop
      vertex -29.2 -18 15
      vertex -29.2 -11.9714 9.41578
      vertex -29.2 18 15
    endloop
  endfacet
  facet normal 1 0 0
    outer loop
      vertex -29.2 -11.9714 9.41578
      vertex -29.2 -18 15
      vertex -29.2 -12.4592 9.66435
    endloop
  endfacet
  facet normal 1 0 0
    outer loop
      vertex -29.2 -12.4592 9.66435
      vertex -29.2 -18 15
      vertex -29.2 -13 9.75
    endloop
  endfacet
  facet normal 1 0 0
    outer loop
      vertex -29.2 -14.7214 8.18026
      vertex -29.2 -18 15
      vertex -29.2 -14.75 8
    endloop
  endfacet
  facet normal 1 0 0
    outer loop
      vertex -29.2 -14.6643 8.54078
      vertex -29.2 -18 15
      vertex -29.2 -14.7214 8.18026
    endloop
  endfacet
  facet normal 1 0 0
    outer loop
      vertex -29.2 -14.4158 9.02862
      vertex -29.2 -18 15
      vertex -29.2 -14.6643 8.54078
    endloop
  endfacet
  facet normal 1 0 0
    outer loop
      vertex -29.2 -14.0286 9.41578
      vertex -29.2 -18 15
      vertex -29.2 -14.4158 9.02862
    endloop
  endfacet
  facet normal 1 0 0
    outer loop
      vertex -29.2 -13.5408 9.66435
      vertex -29.2 -18 15
      vertex -29.2 -14.0286 9.41578
    endloop
  endfacet
  facet normal 1 0 0
    outer loop
      vertex -29.2 -13 9.75
      vertex -29.2 -18 15
      vertex -29.2 -13.5408 9.66435
    endloop
  endfacet
  facet normal 1 -0 0
    outer loop
      vertex -29.2 14.6929 7.63948
      vertex -29.2 18 1.5
      vertex -29.2 14.75 8
    endloop
  endfacet
  facet normal 1 -0 0
    outer loop
      vertex -29.2 14.6643 7.45922
      vertex -29.2 18 1.5
      vertex -29.2 14.6929 7.63948
    endloop
  endfacet
  facet normal 1 -0 0
    outer loop
      vertex -29.2 14.4158 6.97138
      vertex -29.2 18 1.5
      vertex -29.2 14.6643 7.45922
    endloop
  endfacet
  facet normal 1 -0 0
    outer loop
      vertex -29.2 14.0286 6.58422
      vertex -29.2 18 1.5
      vertex -29.2 14.4158 6.97138
    endloop
  endfacet
  facet normal 1 -0 0
    outer loop
      vertex -29.2 13.5408 6.33565
      vertex -29.2 18 1.5
      vertex -29.2 14.0286 6.58422
    endloop
  endfacet
  facet normal 1 -0 0
    outer loop
      vertex -29.2 13.3605 6.3071
      vertex -29.2 18 1.5
      vertex -29.2 13.5408 6.33565
    endloop
  endfacet
  facet normal 1 -0 0
    outer loop
      vertex -29.2 13 6.25
      vertex -29.2 18 1.5
      vertex -29.2 13.3605 6.3071
    endloop
  endfacet
  facet normal 1 0 0
    outer loop
      vertex -29.2 12.6395 6.3071
      vertex -29.2 18 1.5
      vertex -29.2 13 6.25
    endloop
  endfacet
  facet normal 1 0 0
    outer loop
      vertex -29.2 12.4592 6.33565
      vertex -29.2 18 1.5
      vertex -29.2 12.6395 6.3071
    endloop
  endfacet
  facet normal 1 0 0
    outer loop
      vertex -29.2 11.9714 6.58422
      vertex -29.2 18 1.5
      vertex -29.2 12.4592 6.33565
    endloop
  endfacet
  facet normal 1 -0 0
    outer loop
      vertex -29.2 -11.25 8
      vertex -29.2 11.3071 7.63948
      vertex -29.2 11.25 8
    endloop
  endfacet
  facet normal 1 0 0
    outer loop
      vertex -29.2 -11.3071 7.63948
      vertex -29.2 11.3071 7.63948
      vertex -29.2 -11.25 8
    endloop
  endfacet
  facet normal 1 0 0
    outer loop
      vertex -29.2 11.3071 7.63948
      vertex -29.2 -11.3071 7.63948
      vertex -29.2 11.3357 7.45922
    endloop
  endfacet
  facet normal 1 0 0
    outer loop
      vertex -29.2 -11.3357 7.45922
      vertex -29.2 11.3357 7.45922
      vertex -29.2 -11.3071 7.63948
    endloop
  endfacet
  facet normal 1 0 0
    outer loop
      vertex -29.2 11.3357 7.45922
      vertex -29.2 -11.3357 7.45922
      vertex -29.2 11.5842 6.97138
    endloop
  endfacet
  facet normal 1 0 0
    outer loop
      vertex -29.2 -11.5842 6.97138
      vertex -29.2 11.5842 6.97138
      vertex -29.2 -11.3357 7.45922
    endloop
  endfacet
  facet normal 1 0 0
    outer loop
      vertex -29.2 11.5842 6.97138
      vertex -29.2 -11.5842 6.97138
      vertex -29.2 11.9714 6.58422
    endloop
  endfacet
  facet normal 1 0 0
    outer loop
      vertex -29.2 -11.9714 6.58422
      vertex -29.2 11.9714 6.58422
      vertex -29.2 -11.5842 6.97138
    endloop
  endfacet
  facet normal 1 0 0
    outer loop
      vertex -29.2 11.9714 6.58422
      vertex -29.2 -11.9714 6.58422
      vertex -29.2 18 1.5
    endloop
  endfacet
  facet normal 1 0 0
    outer loop
      vertex -29.2 -18 1.5
      vertex -29.2 -11.9714 6.58422
      vertex -29.2 -12.4592 6.33565
    endloop
  endfacet
  facet normal 1 0 0
    outer loop
      vertex -29.2 -18 1.5
      vertex -29.2 -12.4592 6.33565
      vertex -29.2 -12.6395 6.3071
    endloop
  endfacet
  facet normal 1 0 0
    outer loop
      vertex -29.2 -18 1.5
      vertex -29.2 -12.6395 6.3071
      vertex -29.2 -13 6.25
    endloop
  endfacet
  facet normal 1 0 0
    outer loop
      vertex -29.2 -18 1.5
      vertex -29.2 -14.6929 7.63948
      vertex -29.2 -14.75 8
    endloop
  endfacet
  facet normal 1 0 0
    outer loop
      vertex -29.2 -18 1.5
      vertex -29.2 -14.75 8
      vertex -29.2 -18 15
    endloop
  endfacet
  facet normal 1 0 0
    outer loop
      vertex -29.2 -11.9714 6.58422
      vertex -29.2 -18 1.5
      vertex -29.2 18 1.5
    endloop
  endfacet
  facet normal 1 0 0
    outer loop
      vertex -29.2 -13.3605 6.3071
      vertex -29.2 -18 1.5
      vertex -29.2 -13 6.25
    endloop
  endfacet
  facet normal 1 0 0
    outer loop
      vertex -29.2 -13.5408 6.33565
      vertex -29.2 -18 1.5
      vertex -29.2 -13.3605 6.3071
    endloop
  endfacet
  facet normal 1 0 0
    outer loop
      vertex -29.2 -14.0286 6.58422
      vertex -29.2 -18 1.5
      vertex -29.2 -13.5408 6.33565
    endloop
  endfacet
  facet normal 1 0 0
    outer loop
      vertex -29.2 -14.4158 6.97138
      vertex -29.2 -18 1.5
      vertex -29.2 -14.0286 6.58422
    endloop
  endfacet
  facet normal 1 0 0
    outer loop
      vertex -29.2 -14.6643 7.45922
      vertex -29.2 -18 1.5
      vertex -29.2 -14.4158 6.97138
    endloop
  endfacet
  facet normal 1 0 0
    outer loop
      vertex -29.2 -14.6929 7.63948
      vertex -29.2 -18 1.5
      vertex -29.2 -14.6643 7.45922
    endloop
  endfacet
  facet normal 1 -0 0
    outer loop
      vertex -21.3 -10.9 1.5
      vertex -21.3 10.9 -1.5
      vertex -21.3 10.9 1.5
    endloop
  endfacet
  facet normal 1 0 0
    outer loop
      vertex -21.3 10.9 -1.5
      vertex -21.3 -10.9 1.5
      vertex -21.3 -10.9 -1.5
    endloop
  endfacet
  facet normal -1 0 0
    outer loop
      vertex 21.3 -10.9 -1.5
      vertex 21.3 10.9 1.5
      vertex 21.3 10.9 -1.5
    endloop
  endfacet
  facet normal -1 -0 0
    outer loop
      vertex 21.3 10.9 1.5
      vertex 21.3 -10.9 -1.5
      vertex 21.3 -10.9 1.5
    endloop
  endfacet
  facet normal 0 -1 0
    outer loop
      vertex -21.3 10.9 -1.5
      vertex 21.3 10.9 1.5
      vertex -21.3 10.9 1.5
    endloop
  endfacet
  facet normal 0 -1 -0
    outer loop
      vertex 21.3 10.9 1.5
      vertex -21.3 10.9 -1.5
      vertex 21.3 10.9 -1.5
    endloop
  endfacet
  facet normal 0 1 -0
    outer loop
      vertex 21.3 -10.9 -1.5
      vertex -21.3 -10.9 1.5
      vertex 21.3 -10.9 1.5
    endloop
  endfacet
  facet normal 0 1 0
    outer loop
      vertex -21.3 -10.9 1.5
      vertex 21.3 -10.9 -1.5
      vertex -21.3 -10.9 -1.5
    endloop
  endfacet
  facet normal -0.987688 -0.156434 0
    outer loop
      vertex -21.95 -5.1 -1.5
      vertex -22.0601 -4.40471 1.5
      vertex -22.0601 -4.40471 -1.5
    endloop
  endfacet
  facet normal -0.987688 -0.156434 0
    outer loop
      vertex -22.0601 -4.40471 1.5
      vertex -21.95 -5.1 -1.5
      vertex -21.95 -5.1 1.5
    endloop
  endfacet
  facet normal 0.156435 -0.987688 0
    outer loop
      vertex -24.8953 -2.96012 -1.5
      vertex -24.2 -2.85 1.5
      vertex -24.8953 -2.96012 1.5
    endloop
  endfacet
  facet normal 0.156435 -0.987688 0
    outer loop
      vertex -24.2 -2.85 1.5
      vertex -24.8953 -2.96012 -1.5
      vertex -24.2 -2.85 -1.5
    endloop
  endfacet
  facet normal -0.453991 0.891006 0
    outer loop
      vertex -22.8775 -6.92029 -1.5
      vertex -23.5047 -7.23988 1.5
      vertex -22.8775 -6.92029 1.5
    endloop
  endfacet
  facet normal -0.453991 0.891006 0
    outer loop
      vertex -23.5047 -7.23988 1.5
      vertex -22.8775 -6.92029 -1.5
      vertex -23.5047 -7.23988 -1.5
    endloop
  endfacet
  facet normal -0.453992 -0.891006 0
    outer loop
      vertex -23.5047 -2.96012 -1.5
      vertex -22.8775 -3.27971 1.5
      vertex -23.5047 -2.96012 1.5
    endloop
  endfacet
  facet normal -0.453992 -0.891006 -0
    outer loop
      vertex -22.8775 -3.27971 1.5
      vertex -23.5047 -2.96012 -1.5
      vertex -22.8775 -3.27971 -1.5
    endloop
  endfacet
  facet normal -0.891007 -0.453989 0
    outer loop
      vertex -22.0601 -4.40471 -1.5
      vertex -22.3797 -3.77748 1.5
      vertex -22.3797 -3.77748 -1.5
    endloop
  endfacet
  facet normal -0.891007 -0.453989 0
    outer loop
      vertex -22.3797 -3.77748 1.5
      vertex -22.0601 -4.40471 -1.5
      vertex -22.0601 -4.40471 1.5
    endloop
  endfacet
  facet normal -0.156434 -0.987688 0
    outer loop
      vertex -24.2 -2.85 -1.5
      vertex -23.5047 -2.96012 1.5
      vertex -24.2 -2.85 1.5
    endloop
  endfacet
  facet normal -0.156434 -0.987688 -0
    outer loop
      vertex -23.5047 -2.96012 1.5
      vertex -24.2 -2.85 -1.5
      vertex -23.5047 -2.96012 -1.5
    endloop
  endfacet
  facet normal 0.891005 -0.453993 0
    outer loop
      vertex -26.3399 -4.40471 1.5
      vertex -26.0203 -3.77748 -1.5
      vertex -26.0203 -3.77748 1.5
    endloop
  endfacet
  facet normal 0.891005 -0.453993 0
    outer loop
      vertex -26.0203 -3.77748 -1.5
      vertex -26.3399 -4.40471 1.5
      vertex -26.3399 -4.40471 -1.5
    endloop
  endfacet
  facet normal 0.987688 -0.156434 0
    outer loop
      vertex -26.45 -5.1 1.5
      vertex -26.3399 -4.40471 -1.5
      vertex -26.3399 -4.40471 1.5
    endloop
  endfacet
  facet normal 0.987688 -0.156434 0
    outer loop
      vertex -26.3399 -4.40471 -1.5
      vertex -26.45 -5.1 1.5
      vertex -26.45 -5.1 -1.5
    endloop
  endfacet
  facet normal 0.453991 -0.891006 0
    outer loop
      vertex -25.5225 -3.27971 -1.5
      vertex -24.8953 -2.96012 1.5
      vertex -25.5225 -3.27971 1.5
    endloop
  endfacet
  facet normal 0.453991 -0.891006 0
    outer loop
      vertex -24.8953 -2.96012 1.5
      vertex -25.5225 -3.27971 -1.5
      vertex -24.8953 -2.96012 -1.5
    endloop
  endfacet
  facet normal -0.987688 0.156434 0
    outer loop
      vertex -22.0601 -5.79529 -1.5
      vertex -21.95 -5.1 1.5
      vertex -21.95 -5.1 -1.5
    endloop
  endfacet
  facet normal -0.987688 0.156434 0
    outer loop
      vertex -21.95 -5.1 1.5
      vertex -22.0601 -5.79529 -1.5
      vertex -22.0601 -5.79529 1.5
    endloop
  endfacet
  facet normal 0.891005 0.453994 0
    outer loop
      vertex -26.0203 -6.42252 1.5
      vertex -26.3399 -5.79529 -1.5
      vertex -26.3399 -5.79529 1.5
    endloop
  endfacet
  facet normal 0.891005 0.453994 0
    outer loop
      vertex -26.3399 -5.79529 -1.5
      vertex -26.0203 -6.42252 1.5
      vertex -26.0203 -6.42252 -1.5
    endloop
  endfacet
  facet normal -0.707106 -0.707107 0
    outer loop
      vertex -22.8775 -3.27971 -1.5
      vertex -22.3797 -3.77748 1.5
      vertex -22.8775 -3.27971 1.5
    endloop
  endfacet
  facet normal -0.707106 -0.707107 -0
    outer loop
      vertex -22.3797 -3.77748 1.5
      vertex -22.8775 -3.27971 -1.5
      vertex -22.3797 -3.77748 -1.5
    endloop
  endfacet
  facet normal 0.987688 0.156434 0
    outer loop
      vertex -26.3399 -5.79529 1.5
      vertex -26.45 -5.1 -1.5
      vertex -26.45 -5.1 1.5
    endloop
  endfacet
  facet normal 0.987688 0.156434 0
    outer loop
      vertex -26.45 -5.1 -1.5
      vertex -26.3399 -5.79529 1.5
      vertex -26.3399 -5.79529 -1.5
    endloop
  endfacet
  facet normal 0.707107 -0.707106 0
    outer loop
      vertex -26.0203 -3.77748 1.5
      vertex -25.5225 -3.27971 -1.5
      vertex -25.5225 -3.27971 1.5
    endloop
  endfacet
  facet normal 0.707107 -0.707106 0
    outer loop
      vertex -25.5225 -3.27971 -1.5
      vertex -26.0203 -3.77748 1.5
      vertex -26.0203 -3.77748 -1.5
    endloop
  endfacet
  facet normal -0.891007 0.45399 0
    outer loop
      vertex -22.3797 -6.42252 -1.5
      vertex -22.0601 -5.79529 1.5
      vertex -22.0601 -5.79529 -1.5
    endloop
  endfacet
  facet normal -0.891007 0.45399 0
    outer loop
      vertex -22.0601 -5.79529 1.5
      vertex -22.3797 -6.42252 -1.5
      vertex -22.3797 -6.42252 1.5
    endloop
  endfacet
  facet normal 0.45399 0.891007 -0
    outer loop
      vertex -24.8953 -7.23988 -1.5
      vertex -25.5225 -6.92029 1.5
      vertex -24.8953 -7.23988 1.5
    endloop
  endfacet
  facet normal 0.45399 0.891007 0
    outer loop
      vertex -25.5225 -6.92029 1.5
      vertex -24.8953 -7.23988 -1.5
      vertex -25.5225 -6.92029 -1.5
    endloop
  endfacet
  facet normal -0.156434 0.987688 0
    outer loop
      vertex -23.5047 -7.23988 -1.5
      vertex -24.2 -7.35 1.5
      vertex -23.5047 -7.23988 1.5
    endloop
  endfacet
  facet normal -0.156434 0.987688 0
    outer loop
      vertex -24.2 -7.35 1.5
      vertex -23.5047 -7.23988 -1.5
      vertex -24.2 -7.35 -1.5
    endloop
  endfacet
  facet normal 0.707108 0.707105 0
    outer loop
      vertex -25.5225 -6.92029 1.5
      vertex -26.0203 -6.42252 -1.5
      vertex -26.0203 -6.42252 1.5
    endloop
  endfacet
  facet normal 0.707108 0.707105 0
    outer loop
      vertex -26.0203 -6.42252 -1.5
      vertex -25.5225 -6.92029 1.5
      vertex -25.5225 -6.92029 -1.5
    endloop
  endfacet
  facet normal -0.707107 0.707107 0
    outer loop
      vertex -22.8775 -6.92029 -1.5
      vertex -22.3797 -6.42252 1.5
      vertex -22.3797 -6.42252 -1.5
    endloop
  endfacet
  facet normal -0.707107 0.707107 0
    outer loop
      vertex -22.3797 -6.42252 1.5
      vertex -22.8775 -6.92029 -1.5
      vertex -22.8775 -6.92029 1.5
    endloop
  endfacet
  facet normal 0.156435 0.987688 -0
    outer loop
      vertex -24.2 -7.35 -1.5
      vertex -24.8953 -7.23988 1.5
      vertex -24.2 -7.35 1.5
    endloop
  endfacet
  facet normal 0.156435 0.987688 0
    outer loop
      vertex -24.8953 -7.23988 1.5
      vertex -24.2 -7.35 -1.5
      vertex -24.8953 -7.23988 -1.5
    endloop
  endfacet
  facet normal -0.987688 -0.156434 0
    outer loop
      vertex -21.95 5.1 -1.5
      vertex -22.0601 5.79529 1.5
      vertex -22.0601 5.79529 -1.5
    endloop
  endfacet
  facet normal -0.987688 -0.156434 0
    outer loop
      vertex -22.0601 5.79529 1.5
      vertex -21.95 5.1 -1.5
      vertex -21.95 5.1 1.5
    endloop
  endfacet
  facet normal 0.987688 -0.156434 0
    outer loop
      vertex -26.45 5.1 1.5
      vertex -26.3399 5.79529 -1.5
      vertex -26.3399 5.79529 1.5
    endloop
  endfacet
  facet normal 0.987688 -0.156434 0
    outer loop
      vertex -26.3399 5.79529 -1.5
      vertex -26.45 5.1 1.5
      vertex -26.45 5.1 -1.5
    endloop
  endfacet
  facet normal 0.156435 -0.987688 0
    outer loop
      vertex -24.8953 7.23988 -1.5
      vertex -24.2 7.35 1.5
      vertex -24.8953 7.23988 1.5
    endloop
  endfacet
  facet normal 0.156435 -0.987688 0
    outer loop
      vertex -24.2 7.35 1.5
      vertex -24.8953 7.23988 -1.5
      vertex -24.2 7.35 -1.5
    endloop
  endfacet
  facet normal -0.156434 0.987688 0
    outer loop
      vertex -23.5047 2.96012 -1.5
      vertex -24.2 2.85 1.5
      vertex -23.5047 2.96012 1.5
    endloop
  endfacet
  facet normal -0.156434 0.987688 0
    outer loop
      vertex -24.2 2.85 1.5
      vertex -23.5047 2.96012 -1.5
      vertex -24.2 2.85 -1.5
    endloop
  endfacet
  facet normal -0.453992 0.891006 0
    outer loop
      vertex -22.8775 3.27971 -1.5
      vertex -23.5047 2.96012 1.5
      vertex -22.8775 3.27971 1.5
    endloop
  endfacet
  facet normal -0.453992 0.891006 0
    outer loop
      vertex -23.5047 2.96012 1.5
      vertex -22.8775 3.27971 -1.5
      vertex -23.5047 2.96012 -1.5
    endloop
  endfacet
  facet normal -0.707107 -0.707107 0
    outer loop
      vertex -22.3797 6.42252 -1.5
      vertex -22.8775 6.92029 1.5
      vertex -22.8775 6.92029 -1.5
    endloop
  endfacet
  facet normal -0.707107 -0.707107 0
    outer loop
      vertex -22.8775 6.92029 1.5
      vertex -22.3797 6.42252 -1.5
      vertex -22.3797 6.42252 1.5
    endloop
  endfacet
  facet normal -0.891007 -0.45399 0
    outer loop
      vertex -22.0601 5.79529 -1.5
      vertex -22.3797 6.42252 1.5
      vertex -22.3797 6.42252 -1.5
    endloop
  endfacet
  facet normal -0.891007 -0.45399 0
    outer loop
      vertex -22.3797 6.42252 1.5
      vertex -22.0601 5.79529 -1.5
      vertex -22.0601 5.79529 1.5
    endloop
  endfacet
  facet normal -0.453991 -0.891006 0
    outer loop
      vertex -23.5047 7.23988 -1.5
      vertex -22.8775 6.92029 1.5
      vertex -23.5047 7.23988 1.5
    endloop
  endfacet
  facet normal -0.453991 -0.891006 -0
    outer loop
      vertex -22.8775 6.92029 1.5
      vertex -23.5047 7.23988 -1.5
      vertex -22.8775 6.92029 -1.5
    endloop
  endfacet
  facet normal 0.707108 -0.707105 0
    outer loop
      vertex -26.0203 6.42252 1.5
      vertex -25.5225 6.92029 -1.5
      vertex -25.5225 6.92029 1.5
    endloop
  endfacet
  facet normal 0.707108 -0.707105 0
    outer loop
      vertex -25.5225 6.92029 -1.5
      vertex -26.0203 6.42252 1.5
      vertex -26.0203 6.42252 -1.5
    endloop
  endfacet
  facet normal 0.891005 -0.453994 0
    outer loop
      vertex -26.3399 5.79529 1.5
      vertex -26.0203 6.42252 -1.5
      vertex -26.0203 6.42252 1.5
    endloop
  endfacet
  facet normal 0.891005 -0.453994 0
    outer loop
      vertex -26.0203 6.42252 -1.5
      vertex -26.3399 5.79529 1.5
      vertex -26.3399 5.79529 -1.5
    endloop
  endfacet
  facet normal 0.45399 -0.891007 0
    outer loop
      vertex -25.5225 6.92029 -1.5
      vertex -24.8953 7.23988 1.5
      vertex -25.5225 6.92029 1.5
    endloop
  endfacet
  facet normal 0.45399 -0.891007 0
    outer loop
      vertex -24.8953 7.23988 1.5
      vertex -25.5225 6.92029 -1.5
      vertex -24.8953 7.23988 -1.5
    endloop
  endfacet
  facet normal -0.156434 -0.987688 0
    outer loop
      vertex -24.2 7.35 -1.5
      vertex -23.5047 7.23988 1.5
      vertex -24.2 7.35 1.5
    endloop
  endfacet
  facet normal -0.156434 -0.987688 -0
    outer loop
      vertex -23.5047 7.23988 1.5
      vertex -24.2 7.35 -1.5
      vertex -23.5047 7.23988 -1.5
    endloop
  endfacet
  facet normal 0.987688 0.156434 0
    outer loop
      vertex -26.3399 4.40471 1.5
      vertex -26.45 5.1 -1.5
      vertex -26.45 5.1 1.5
    endloop
  endfacet
  facet normal 0.987688 0.156434 0
    outer loop
      vertex -26.45 5.1 -1.5
      vertex -26.3399 4.40471 1.5
      vertex -26.3399 4.40471 -1.5
    endloop
  endfacet
  facet normal -0.707106 0.707107 0
    outer loop
      vertex -22.3797 3.77748 -1.5
      vertex -22.8775 3.27971 1.5
      vertex -22.3797 3.77748 1.5
    endloop
  endfacet
  facet normal -0.707106 0.707107 0
    outer loop
      vertex -22.8775 3.27971 1.5
      vertex -22.3797 3.77748 -1.5
      vertex -22.8775 3.27971 -1.5
    endloop
  endfacet
  facet normal -0.891007 0.453989 0
    outer loop
      vertex -22.3797 3.77748 -1.5
      vertex -22.0601 4.40471 1.5
      vertex -22.0601 4.40471 -1.5
    endloop
  endfacet
  facet normal -0.891007 0.453989 0
    outer loop
      vertex -22.0601 4.40471 1.5
      vertex -22.3797 3.77748 -1.5
      vertex -22.3797 3.77748 1.5
    endloop
  endfacet
  facet normal 0.891005 0.453993 0
    outer loop
      vertex -26.0203 3.77748 1.5
      vertex -26.3399 4.40471 -1.5
      vertex -26.3399 4.40471 1.5
    endloop
  endfacet
  facet normal 0.891005 0.453993 0
    outer loop
      vertex -26.3399 4.40471 -1.5
      vertex -26.0203 3.77748 1.5
      vertex -26.0203 3.77748 -1.5
    endloop
  endfacet
  facet normal -0.987688 0.156434 0
    outer loop
      vertex -22.0601 4.40471 -1.5
      vertex -21.95 5.1 1.5
      vertex -21.95 5.1 -1.5
    endloop
  endfacet
  facet normal -0.987688 0.156434 0
    outer loop
      vertex -21.95 5.1 1.5
      vertex -22.0601 4.40471 -1.5
      vertex -22.0601 4.40471 1.5
    endloop
  endfacet
  facet normal 0.156435 0.987688 -0
    outer loop
      vertex -24.2 2.85 -1.5
      vertex -24.8953 2.96012 1.5
      vertex -24.2 2.85 1.5
    endloop
  endfacet
  facet normal 0.156435 0.987688 0
    outer loop
      vertex -24.8953 2.96012 1.5
      vertex -24.2 2.85 -1.5
      vertex -24.8953 2.96012 -1.5
    endloop
  endfacet
  facet normal 0.707107 0.707106 0
    outer loop
      vertex -25.5225 3.27971 1.5
      vertex -26.0203 3.77748 -1.5
      vertex -26.0203 3.77748 1.5
    endloop
  endfacet
  facet normal 0.707107 0.707106 0
    outer loop
      vertex -26.0203 3.77748 -1.5
      vertex -25.5225 3.27971 1.5
      vertex -25.5225 3.27971 -1.5
    endloop
  endfacet
  facet normal 0.453991 0.891006 -0
    outer loop
      vertex -24.8953 2.96012 -1.5
      vertex -25.5225 3.27971 1.5
      vertex -24.8953 2.96012 1.5
    endloop
  endfacet
  facet normal 0.453991 0.891006 0
    outer loop
      vertex -25.5225 3.27971 1.5
      vertex -24.8953 2.96012 -1.5
      vertex -25.5225 3.27971 -1.5
    endloop
  endfacet
  facet normal -0.987688 -0.156434 0
    outer loop
      vertex 26.45 -5.1 -1.5
      vertex 26.3399 -4.40471 1.5
      vertex 26.3399 -4.40471 -1.5
    endloop
  endfacet
  facet normal -0.987688 -0.156434 0
    outer loop
      vertex 26.3399 -4.40471 1.5
      vertex 26.45 -5.1 -1.5
      vertex 26.45 -5.1 1.5
    endloop
  endfacet
  facet normal 0.156434 -0.987688 0
    outer loop
      vertex 23.5047 -2.96012 -1.5
      vertex 24.2 -2.85 1.5
      vertex 23.5047 -2.96012 1.5
    endloop
  endfacet
  facet normal 0.156434 -0.987688 0
    outer loop
      vertex 24.2 -2.85 1.5
      vertex 23.5047 -2.96012 -1.5
      vertex 24.2 -2.85 -1.5
    endloop
  endfacet
  facet normal -0.156435 0.987688 0
    outer loop
      vertex 24.8953 -7.23988 -1.5
      vertex 24.2 -7.35 1.5
      vertex 24.8953 -7.23988 1.5
    endloop
  endfacet
  facet normal -0.156435 0.987688 0
    outer loop
      vertex 24.2 -7.35 1.5
      vertex 24.8953 -7.23988 -1.5
      vertex 24.2 -7.35 -1.5
    endloop
  endfacet
  facet normal -0.453991 -0.891006 0
    outer loop
      vertex 24.8953 -2.96012 -1.5
      vertex 25.5225 -3.27971 1.5
      vertex 24.8953 -2.96012 1.5
    endloop
  endfacet
  facet normal -0.453991 -0.891006 -0
    outer loop
      vertex 25.5225 -3.27971 1.5
      vertex 24.8953 -2.96012 -1.5
      vertex 25.5225 -3.27971 -1.5
    endloop
  endfacet
  facet normal -0.891005 -0.453993 0
    outer loop
      vertex 26.3399 -4.40471 -1.5
      vertex 26.0203 -3.77748 1.5
      vertex 26.0203 -3.77748 -1.5
    endloop
  endfacet
  facet normal -0.891005 -0.453993 0
    outer loop
      vertex 26.0203 -3.77748 1.5
      vertex 26.3399 -4.40471 -1.5
      vertex 26.3399 -4.40471 1.5
    endloop
  endfacet
  facet normal -0.156435 -0.987688 0
    outer loop
      vertex 24.2 -2.85 -1.5
      vertex 24.8953 -2.96012 1.5
      vertex 24.2 -2.85 1.5
    endloop
  endfacet
  facet normal -0.156435 -0.987688 -0
    outer loop
      vertex 24.8953 -2.96012 1.5
      vertex 24.2 -2.85 -1.5
      vertex 24.8953 -2.96012 -1.5
    endloop
  endfacet
  facet normal 0.707106 -0.707107 0
    outer loop
      vertex 22.3797 -3.77748 -1.5
      vertex 22.8775 -3.27971 1.5
      vertex 22.3797 -3.77748 1.5
    endloop
  endfacet
  facet normal 0.707106 -0.707107 0
    outer loop
      vertex 22.8775 -3.27971 1.5
      vertex 22.3797 -3.77748 -1.5
      vertex 22.8775 -3.27971 -1.5
    endloop
  endfacet
  facet normal 0.453992 -0.891006 0
    outer loop
      vertex 22.8775 -3.27971 -1.5
      vertex 23.5047 -2.96012 1.5
      vertex 22.8775 -3.27971 1.5
    endloop
  endfacet
  facet normal 0.453992 -0.891006 0
    outer loop
      vertex 23.5047 -2.96012 1.5
      vertex 22.8775 -3.27971 -1.5
      vertex 23.5047 -2.96012 -1.5
    endloop
  endfacet
  facet normal -0.987688 0.156434 0
    outer loop
      vertex 26.3399 -5.79529 -1.5
      vertex 26.45 -5.1 1.5
      vertex 26.45 -5.1 -1.5
    endloop
  endfacet
  facet normal -0.987688 0.156434 0
    outer loop
      vertex 26.45 -5.1 1.5
      vertex 26.3399 -5.79529 -1.5
      vertex 26.3399 -5.79529 1.5
    endloop
  endfacet
  facet normal -0.45399 0.891007 0
    outer loop
      vertex 25.5225 -6.92029 -1.5
      vertex 24.8953 -7.23988 1.5
      vertex 25.5225 -6.92029 1.5
    endloop
  endfacet
  facet normal -0.45399 0.891007 0
    outer loop
      vertex 24.8953 -7.23988 1.5
      vertex 25.5225 -6.92029 -1.5
      vertex 24.8953 -7.23988 -1.5
    endloop
  endfacet
  facet normal 0.453991 0.891006 -0
    outer loop
      vertex 23.5047 -7.23988 -1.5
      vertex 22.8775 -6.92029 1.5
      vertex 23.5047 -7.23988 1.5
    endloop
  endfacet
  facet normal 0.453991 0.891006 0
    outer loop
      vertex 22.8775 -6.92029 1.5
      vertex 23.5047 -7.23988 -1.5
      vertex 22.8775 -6.92029 -1.5
    endloop
  endfacet
  facet normal 0.891007 0.45399 0
    outer loop
      vertex 22.3797 -6.42252 1.5
      vertex 22.0601 -5.79529 -1.5
      vertex 22.0601 -5.79529 1.5
    endloop
  endfacet
  facet normal 0.891007 0.45399 0
    outer loop
      vertex 22.0601 -5.79529 -1.5
      vertex 22.3797 -6.42252 1.5
      vertex 22.3797 -6.42252 -1.5
    endloop
  endfacet
  facet normal -0.707107 -0.707106 0
    outer loop
      vertex 26.0203 -3.77748 -1.5
      vertex 25.5225 -3.27971 1.5
      vertex 25.5225 -3.27971 -1.5
    endloop
  endfacet
  facet normal -0.707107 -0.707106 0
    outer loop
      vertex 25.5225 -3.27971 1.5
      vertex 26.0203 -3.77748 -1.5
      vertex 26.0203 -3.77748 1.5
    endloop
  endfacet
  facet normal 0.891007 -0.453989 0
    outer loop
      vertex 22.0601 -4.40471 1.5
      vertex 22.3797 -3.77748 -1.5
      vertex 22.3797 -3.77748 1.5
    endloop
  endfacet
  facet normal 0.891007 -0.453989 0
    outer loop
      vertex 22.3797 -3.77748 -1.5
      vertex 22.0601 -4.40471 1.5
      vertex 22.0601 -4.40471 -1.5
    endloop
  endfacet
  facet normal 0.987688 -0.156434 0
    outer loop
      vertex 21.95 -5.1 1.5
      vertex 22.0601 -4.40471 -1.5
      vertex 22.0601 -4.40471 1.5
    endloop
  endfacet
  facet normal 0.987688 -0.156434 0
    outer loop
      vertex 22.0601 -4.40471 -1.5
      vertex 21.95 -5.1 1.5
      vertex 21.95 -5.1 -1.5
    endloop
  endfacet
  facet normal 0.987688 0.156434 0
    outer loop
      vertex 22.0601 -5.79529 1.5
      vertex 21.95 -5.1 -1.5
      vertex 21.95 -5.1 1.5
    endloop
  endfacet
  facet normal 0.987688 0.156434 0
    outer loop
      vertex 21.95 -5.1 -1.5
      vertex 22.0601 -5.79529 1.5
      vertex 22.0601 -5.79529 -1.5
    endloop
  endfacet
  facet normal -0.707108 0.707105 0
    outer loop
      vertex 25.5225 -6.92029 -1.5
      vertex 26.0203 -6.42252 1.5
      vertex 26.0203 -6.42252 -1.5
    endloop
  endfacet
  facet normal -0.707108 0.707105 0
    outer loop
      vertex 26.0203 -6.42252 1.5
      vertex 25.5225 -6.92029 -1.5
      vertex 25.5225 -6.92029 1.5
    endloop
  endfacet
  facet normal 0.156434 0.987688 -0
    outer loop
      vertex 24.2 -7.35 -1.5
      vertex 23.5047 -7.23988 1.5
      vertex 24.2 -7.35 1.5
    endloop
  endfacet
  facet normal 0.156434 0.987688 0
    outer loop
      vertex 23.5047 -7.23988 1.5
      vertex 24.2 -7.35 -1.5
      vertex 23.5047 -7.23988 -1.5
    endloop
  endfacet
  facet normal 0.707107 0.707107 0
    outer loop
      vertex 22.8775 -6.92029 1.5
      vertex 22.3797 -6.42252 -1.5
      vertex 22.3797 -6.42252 1.5
    endloop
  endfacet
  facet normal 0.707107 0.707107 0
    outer loop
      vertex 22.3797 -6.42252 -1.5
      vertex 22.8775 -6.92029 1.5
      vertex 22.8775 -6.92029 -1.5
    endloop
  endfacet
  facet normal -0.891005 0.453994 0
    outer loop
      vertex 26.0203 -6.42252 -1.5
      vertex 26.3399 -5.79529 1.5
      vertex 26.3399 -5.79529 -1.5
    endloop
  endfacet
  facet normal -0.891005 0.453994 0
    outer loop
      vertex 26.3399 -5.79529 1.5
      vertex 26.0203 -6.42252 -1.5
      vertex 26.0203 -6.42252 1.5
    endloop
  endfacet
  facet normal -0.987688 -0.156434 0
    outer loop
      vertex 26.45 5.1 -1.5
      vertex 26.3399 5.79529 1.5
      vertex 26.3399 5.79529 -1.5
    endloop
  endfacet
  facet normal -0.987688 -0.156434 0
    outer loop
      vertex 26.3399 5.79529 1.5
      vertex 26.45 5.1 -1.5
      vertex 26.45 5.1 1.5
    endloop
  endfacet
  facet normal 0.987688 -0.156434 0
    outer loop
      vertex 21.95 5.1 1.5
      vertex 22.0601 5.79529 -1.5
      vertex 22.0601 5.79529 1.5
    endloop
  endfacet
  facet normal 0.987688 -0.156434 0
    outer loop
      vertex 22.0601 5.79529 -1.5
      vertex 21.95 5.1 1.5
      vertex 21.95 5.1 -1.5
    endloop
  endfacet
  facet normal 0.156434 -0.987688 0
    outer loop
      vertex 23.5047 7.23988 -1.5
      vertex 24.2 7.35 1.5
      vertex 23.5047 7.23988 1.5
    endloop
  endfacet
  facet normal 0.156434 -0.987688 0
    outer loop
      vertex 24.2 7.35 1.5
      vertex 23.5047 7.23988 -1.5
      vertex 24.2 7.35 -1.5
    endloop
  endfacet
  facet normal -0.156435 0.987688 0
    outer loop
      vertex 24.8953 2.96012 -1.5
      vertex 24.2 2.85 1.5
      vertex 24.8953 2.96012 1.5
    endloop
  endfacet
  facet normal -0.156435 0.987688 0
    outer loop
      vertex 24.2 2.85 1.5
      vertex 24.8953 2.96012 -1.5
      vertex 24.2 2.85 -1.5
    endloop
  endfacet
  facet normal -0.891005 0.453993 0
    outer loop
      vertex 26.0203 3.77748 -1.5
      vertex 26.3399 4.40471 1.5
      vertex 26.3399 4.40471 -1.5
    endloop
  endfacet
  facet normal -0.891005 0.453993 0
    outer loop
      vertex 26.3399 4.40471 1.5
      vertex 26.0203 3.77748 -1.5
      vertex 26.0203 3.77748 1.5
    endloop
  endfacet
  facet normal -0.707108 -0.707105 0
    outer loop
      vertex 26.0203 6.42252 -1.5
      vertex 25.5225 6.92029 1.5
      vertex 25.5225 6.92029 -1.5
    endloop
  endfacet
  facet normal -0.707108 -0.707105 0
    outer loop
      vertex 25.5225 6.92029 1.5
      vertex 26.0203 6.42252 -1.5
      vertex 26.0203 6.42252 1.5
    endloop
  endfacet
  facet normal -0.891005 -0.453994 0
    outer loop
      vertex 26.3399 5.79529 -1.5
      vertex 26.0203 6.42252 1.5
      vertex 26.0203 6.42252 -1.5
    endloop
  endfacet
  facet normal -0.891005 -0.453994 0
    outer loop
      vertex 26.0203 6.42252 1.5
      vertex 26.3399 5.79529 -1.5
      vertex 26.3399 5.79529 1.5
    endloop
  endfacet
  facet normal 0.707107 -0.707107 0
    outer loop
      vertex 22.3797 6.42252 1.5
      vertex 22.8775 6.92029 -1.5
      vertex 22.8775 6.92029 1.5
    endloop
  endfacet
  facet normal 0.707107 -0.707107 0
    outer loop
      vertex 22.8775 6.92029 -1.5
      vertex 22.3797 6.42252 1.5
      vertex 22.3797 6.42252 -1.5
    endloop
  endfacet
  facet normal 0.891007 -0.45399 0
    outer loop
      vertex 22.0601 5.79529 1.5
      vertex 22.3797 6.42252 -1.5
      vertex 22.3797 6.42252 1.5
    endloop
  endfacet
  facet normal 0.891007 -0.45399 0
    outer loop
      vertex 22.3797 6.42252 -1.5
      vertex 22.0601 5.79529 1.5
      vertex 22.0601 5.79529 -1.5
    endloop
  endfacet
  facet normal 0.453991 -0.891006 0
    outer loop
      vertex 22.8775 6.92029 -1.5
      vertex 23.5047 7.23988 1.5
      vertex 22.8775 6.92029 1.5
    endloop
  endfacet
  facet normal 0.453991 -0.891006 0
    outer loop
      vertex 23.5047 7.23988 1.5
      vertex 22.8775 6.92029 -1.5
      vertex 23.5047 7.23988 -1.5
    endloop
  endfacet
  facet normal 0.707106 0.707107 -0
    outer loop
      vertex 22.8775 3.27971 -1.5
      vertex 22.3797 3.77748 1.5
      vertex 22.8775 3.27971 1.5
    endloop
  endfacet
  facet normal 0.707106 0.707107 0
    outer loop
      vertex 22.3797 3.77748 1.5
      vertex 22.8775 3.27971 -1.5
      vertex 22.3797 3.77748 -1.5
    endloop
  endfacet
  facet normal -0.156435 -0.987688 0
    outer loop
      vertex 24.2 7.35 -1.5
      vertex 24.8953 7.23988 1.5
      vertex 24.2 7.35 1.5
    endloop
  endfacet
  facet normal -0.156435 -0.987688 -0
    outer loop
      vertex 24.8953 7.23988 1.5
      vertex 24.2 7.35 -1.5
      vertex 24.8953 7.23988 -1.5
    endloop
  endfacet
  facet normal -0.45399 -0.891007 0
    outer loop
      vertex 24.8953 7.23988 -1.5
      vertex 25.5225 6.92029 1.5
      vertex 24.8953 7.23988 1.5
    endloop
  endfacet
  facet normal -0.45399 -0.891007 -0
    outer loop
      vertex 25.5225 6.92029 1.5
      vertex 24.8953 7.23988 -1.5
      vertex 25.5225 6.92029 -1.5
    endloop
  endfacet
  facet normal -0.453991 0.891006 0
    outer loop
      vertex 25.5225 3.27971 -1.5
      vertex 24.8953 2.96012 1.5
      vertex 25.5225 3.27971 1.5
    endloop
  endfacet
  facet normal -0.453991 0.891006 0
    outer loop
      vertex 24.8953 2.96012 1.5
      vertex 25.5225 3.27971 -1.5
      vertex 24.8953 2.96012 -1.5
    endloop
  endfacet
  facet normal -0.987688 0.156434 0
    outer loop
      vertex 26.3399 4.40471 -1.5
      vertex 26.45 5.1 1.5
      vertex 26.45 5.1 -1.5
    endloop
  endfacet
  facet normal -0.987688 0.156434 0
    outer loop
      vertex 26.45 5.1 1.5
      vertex 26.3399 4.40471 -1.5
      vertex 26.3399 4.40471 1.5
    endloop
  endfacet
  facet normal 0.987688 0.156434 0
    outer loop
      vertex 22.0601 4.40471 1.5
      vertex 21.95 5.1 -1.5
      vertex 21.95 5.1 1.5
    endloop
  endfacet
  facet normal 0.987688 0.156434 0
    outer loop
      vertex 21.95 5.1 -1.5
      vertex 22.0601 4.40471 1.5
      vertex 22.0601 4.40471 -1.5
    endloop
  endfacet
  facet normal -0.707107 0.707106 0
    outer loop
      vertex 25.5225 3.27971 -1.5
      vertex 26.0203 3.77748 1.5
      vertex 26.0203 3.77748 -1.5
    endloop
  endfacet
  facet normal -0.707107 0.707106 0
    outer loop
      vertex 26.0203 3.77748 1.5
      vertex 25.5225 3.27971 -1.5
      vertex 25.5225 3.27971 1.5
    endloop
  endfacet
  facet normal 0.156434 0.987688 -0
    outer loop
      vertex 24.2 2.85 -1.5
      vertex 23.5047 2.96012 1.5
      vertex 24.2 2.85 1.5
    endloop
  endfacet
  facet normal 0.156434 0.987688 0
    outer loop
      vertex 23.5047 2.96012 1.5
      vertex 24.2 2.85 -1.5
      vertex 23.5047 2.96012 -1.5
    endloop
  endfacet
  facet normal 0.891007 0.453989 0
    outer loop
      vertex 22.3797 3.77748 1.5
      vertex 22.0601 4.40471 -1.5
      vertex 22.0601 4.40471 1.5
    endloop
  endfacet
  facet normal 0.891007 0.453989 0
    outer loop
      vertex 22.0601 4.40471 -1.5
      vertex 22.3797 3.77748 1.5
      vertex 22.3797 3.77748 -1.5
    endloop
  endfacet
  facet normal 0.453992 0.891006 -0
    outer loop
      vertex 23.5047 2.96012 -1.5
      vertex 22.8775 3.27971 1.5
      vertex 23.5047 2.96012 1.5
    endloop
  endfacet
  facet normal 0.453992 0.891006 0
    outer loop
      vertex 22.8775 3.27971 1.5
      vertex 23.5047 2.96012 -1.5
      vertex 22.8775 3.27971 -1.5
    endloop
  endfacet
  facet normal 0 -0.156436 0.987688
    outer loop
      vertex -32.2 13.5408 6.33565
      vertex -29.2 13.3605 6.3071
      vertex -29.2 13.5408 6.33565
    endloop
  endfacet
  facet normal 7.84944e-008 -0.156435 0.987688
    outer loop
      vertex -29.2 13.3605 6.3071
      vertex -32.2 13.5408 6.33565
      vertex -32.2 13.1803 6.27855
    endloop
  endfacet
  facet normal 0 -0.156433 0.987688
    outer loop
      vertex -32.2 13.1803 6.27855
      vertex -29.2 13 6.25
      vertex -29.2 13.3605 6.3071
    endloop
  endfacet
  facet normal 0 -0.156433 0.987688
    outer loop
      vertex -29.2 13 6.25
      vertex -32.2 13.1803 6.27855
      vertex -32.2 13 6.25
    endloop
  endfacet
  facet normal 0 0.453991 -0.891006
    outer loop
      vertex -32.2 11.9714 9.41578
      vertex -29.2 12.4592 9.66435
      vertex -29.2 11.9714 9.41578
    endloop
  endfacet
  facet normal 0 0.453991 -0.891006
    outer loop
      vertex -29.2 12.4592 9.66435
      vertex -32.2 11.9714 9.41578
      vertex -32.2 12.4592 9.66435
    endloop
  endfacet
  facet normal 0 0.987689 0.156433
    outer loop
      vertex -29.2 11.25 8
      vertex -32.2 11.2786 7.81974
      vertex -32.2 11.25 8
    endloop
  endfacet
  facet normal -1.24322e-008 0.987689 0.156433
    outer loop
      vertex -32.2 11.2786 7.81974
      vertex -29.2 11.25 8
      vertex -29.2 11.3071 7.63948
    endloop
  endfacet
  facet normal 1.69421e-007 -0.987688 -0.156436
    outer loop
      vertex -32.2 14.75 8
      vertex -29.2 14.7214 8.18026
      vertex -32.2 14.6929 8.36052
    endloop
  endfacet
  facet normal 0 -0.987689 -0.156433
    outer loop
      vertex -29.2 14.7214 8.18026
      vertex -32.2 14.75 8
      vertex -29.2 14.75 8
    endloop
  endfacet
  facet normal 0 -0.987688 -0.156433
    outer loop
      vertex -32.2 14.6929 8.36052
      vertex -29.2 14.6643 8.54078
      vertex -32.2 14.6643 8.54078
    endloop
  endfacet
  facet normal 1.56989e-007 -0.987688 -0.156436
    outer loop
      vertex -29.2 14.6643 8.54078
      vertex -32.2 14.6929 8.36052
      vertex -29.2 14.7214 8.18026
    endloop
  endfacet
  facet normal 0 -0.156435 -0.987688
    outer loop
      vertex -32.2 13 9.75
      vertex -29.2 13.5408 9.66435
      vertex -29.2 13 9.75
    endloop
  endfacet
  facet normal -0 -0.156435 -0.987688
    outer loop
      vertex -29.2 13.5408 9.66435
      vertex -32.2 13 9.75
      vertex -32.2 13.5408 9.66435
    endloop
  endfacet
  facet normal 0 0.707107 0.707107
    outer loop
      vertex -29.2 11.9714 6.58422
      vertex -32.2 11.5842 6.97138
      vertex -29.2 11.5842 6.97138
    endloop
  endfacet
  facet normal 0 0.707107 0.707107
    outer loop
      vertex -32.2 11.5842 6.97138
      vertex -29.2 11.9714 6.58422
      vertex -32.2 11.9714 6.58422
    endloop
  endfacet
  facet normal 0 -0.891006 -0.453991
    outer loop
      vertex -32.2 14.6643 8.54078
      vertex -29.2 14.4158 9.02862
      vertex -32.2 14.4158 9.02862
    endloop
  endfacet
  facet normal 0 -0.891006 -0.453991
    outer loop
      vertex -29.2 14.4158 9.02862
      vertex -32.2 14.6643 8.54078
      vertex -29.2 14.6643 8.54078
    endloop
  endfacet
  facet normal 0 -0.891006 0.453991
    outer loop
      vertex -32.2 14.4158 6.97138
      vertex -29.2 14.6643 7.45922
      vertex -32.2 14.6643 7.45922
    endloop
  endfacet
  facet normal 0 -0.891006 0.453991
    outer loop
      vertex -29.2 14.6643 7.45922
      vertex -32.2 14.4158 6.97138
      vertex -29.2 14.4158 6.97138
    endloop
  endfacet
  facet normal -1.56989e-007 -0.987688 0.156436
    outer loop
      vertex -32.2 14.6643 7.45922
      vertex -29.2 14.6929 7.63948
      vertex -32.2 14.7214 7.81974
    endloop
  endfacet
  facet normal 0 -0.987688 0.156433
    outer loop
      vertex -29.2 14.6929 7.63948
      vertex -32.2 14.6643 7.45922
      vertex -29.2 14.6643 7.45922
    endloop
  endfacet
  facet normal 0 -0.987689 0.156433
    outer loop
      vertex -32.2 14.7214 7.81974
      vertex -29.2 14.75 8
      vertex -32.2 14.75 8
    endloop
  endfacet
  facet normal -1.69421e-007 -0.987688 0.156436
    outer loop
      vertex -29.2 14.75 8
      vertex -32.2 14.7214 7.81974
      vertex -29.2 14.6929 7.63948
    endloop
  endfacet
  facet normal 0 -0.707107 -0.707107
    outer loop
      vertex -32.2 14.4158 9.02862
      vertex -29.2 14.0286 9.41578
      vertex -32.2 14.0286 9.41578
    endloop
  endfacet
  facet normal 0 -0.707107 -0.707107
    outer loop
      vertex -29.2 14.0286 9.41578
      vertex -32.2 14.4158 9.02862
      vertex -29.2 14.4158 9.02862
    endloop
  endfacet
  facet normal 0 0.156435 -0.987688
    outer loop
      vertex -32.2 12.4592 9.66435
      vertex -29.2 13 9.75
      vertex -29.2 12.4592 9.66435
    endloop
  endfacet
  facet normal 0 0.156435 -0.987688
    outer loop
      vertex -29.2 13 9.75
      vertex -32.2 12.4592 9.66435
      vertex -32.2 13 9.75
    endloop
  endfacet
  facet normal 0 0.987689 -0.156433
    outer loop
      vertex -32.2 11.25 8
      vertex -29.2 11.2786 8.18026
      vertex -29.2 11.25 8
    endloop
  endfacet
  facet normal 1.24322e-008 0.987689 -0.156433
    outer loop
      vertex -29.2 11.2786 8.18026
      vertex -32.2 11.25 8
      vertex -32.2 11.3071 8.36052
    endloop
  endfacet
  facet normal 0 0.891006 0.453991
    outer loop
      vertex -29.2 11.5842 6.97138
      vertex -32.2 11.3357 7.45922
      vertex -29.2 11.3357 7.45922
    endloop
  endfacet
  facet normal 0 0.891006 0.453991
    outer loop
      vertex -32.2 11.3357 7.45922
      vertex -29.2 11.5842 6.97138
      vertex -32.2 11.5842 6.97138
    endloop
  endfacet
  facet normal -0 0.987688 0.156433
    outer loop
      vertex -32.2 11.3357 7.45922
      vertex -29.2 11.3071 7.63948
      vertex -29.2 11.3357 7.45922
    endloop
  endfacet
  facet normal 0 0.987688 0.156433
    outer loop
      vertex -29.2 11.3071 7.63948
      vertex -32.2 11.3357 7.45922
      vertex -32.2 11.2786 7.81974
    endloop
  endfacet
  facet normal 0 -0.707107 0.707107
    outer loop
      vertex -32.2 14.0286 6.58422
      vertex -29.2 14.4158 6.97138
      vertex -32.2 14.4158 6.97138
    endloop
  endfacet
  facet normal 0 -0.707107 0.707107
    outer loop
      vertex -29.2 14.4158 6.97138
      vertex -32.2 14.0286 6.58422
      vertex -29.2 14.0286 6.58422
    endloop
  endfacet
  facet normal 0 -0.453991 0.891006
    outer loop
      vertex -32.2 14.0286 6.58422
      vertex -29.2 13.5408 6.33565
      vertex -29.2 14.0286 6.58422
    endloop
  endfacet
  facet normal 0 -0.453991 0.891006
    outer loop
      vertex -29.2 13.5408 6.33565
      vertex -32.2 14.0286 6.58422
      vertex -32.2 13.5408 6.33565
    endloop
  endfacet
  facet normal 0 -0.453991 -0.891006
    outer loop
      vertex -32.2 13.5408 9.66435
      vertex -29.2 14.0286 9.41578
      vertex -29.2 13.5408 9.66435
    endloop
  endfacet
  facet normal -0 -0.453991 -0.891006
    outer loop
      vertex -29.2 14.0286 9.41578
      vertex -32.2 13.5408 9.66435
      vertex -32.2 14.0286 9.41578
    endloop
  endfacet
  facet normal 0 0.707107 -0.707107
    outer loop
      vertex -29.2 11.5842 9.02862
      vertex -32.2 11.9714 9.41578
      vertex -29.2 11.9714 9.41578
    endloop
  endfacet
  facet normal 0 0.707107 -0.707107
    outer loop
      vertex -32.2 11.9714 9.41578
      vertex -29.2 11.5842 9.02862
      vertex -32.2 11.5842 9.02862
    endloop
  endfacet
  facet normal 0 0.987688 -0.156433
    outer loop
      vertex -29.2 11.3357 8.54078
      vertex -32.2 11.3071 8.36052
      vertex -32.2 11.3357 8.54078
    endloop
  endfacet
  facet normal 0 0.987688 -0.156433
    outer loop
      vertex -32.2 11.3071 8.36052
      vertex -29.2 11.3357 8.54078
      vertex -29.2 11.2786 8.18026
    endloop
  endfacet
  facet normal 0 0.891006 -0.453991
    outer loop
      vertex -29.2 11.3357 8.54078
      vertex -32.2 11.5842 9.02862
      vertex -29.2 11.5842 9.02862
    endloop
  endfacet
  facet normal 0 0.891006 -0.453991
    outer loop
      vertex -32.2 11.5842 9.02862
      vertex -29.2 11.3357 8.54078
      vertex -32.2 11.3357 8.54078
    endloop
  endfacet
  facet normal -0 0.453991 0.891006
    outer loop
      vertex -32.2 12.4592 6.33565
      vertex -29.2 11.9714 6.58422
      vertex -29.2 12.4592 6.33565
    endloop
  endfacet
  facet normal 0 0.453991 0.891006
    outer loop
      vertex -29.2 11.9714 6.58422
      vertex -32.2 12.4592 6.33565
      vertex -32.2 11.9714 6.58422
    endloop
  endfacet
  facet normal 1.03359e-007 0.156434 0.987688
    outer loop
      vertex -32.2 12.4592 6.33565
      vertex -29.2 12.6395 6.3071
      vertex -32.2 12.8197 6.27855
    endloop
  endfacet
  facet normal 0 0.156436 0.987688
    outer loop
      vertex -29.2 12.6395 6.3071
      vertex -32.2 12.4592 6.33565
      vertex -29.2 12.4592 6.33565
    endloop
  endfacet
  facet normal 0 0.156433 0.987688
    outer loop
      vertex -32.2 12.8197 6.27855
      vertex -29.2 13 6.25
      vertex -32.2 13 6.25
    endloop
  endfacet
  facet normal 2.48644e-008 0.156433 0.987689
    outer loop
      vertex -29.2 13 6.25
      vertex -32.2 12.8197 6.27855
      vertex -29.2 12.6395 6.3071
    endloop
  endfacet
  facet normal 0 -0.156436 0.987688
    outer loop
      vertex -32.2 -12.4592 6.33565
      vertex -29.2 -12.6395 6.3071
      vertex -29.2 -12.4592 6.33565
    endloop
  endfacet
  facet normal 1.03359e-007 -0.156434 0.987688
    outer loop
      vertex -29.2 -12.6395 6.3071
      vertex -32.2 -12.4592 6.33565
      vertex -32.2 -12.8197 6.27855
    endloop
  endfacet
  facet normal 2.48644e-008 -0.156433 0.987689
    outer loop
      vertex -32.2 -12.8197 6.27855
      vertex -29.2 -13 6.25
      vertex -29.2 -12.6395 6.3071
    endloop
  endfacet
  facet normal 0 -0.156433 0.987688
    outer loop
      vertex -29.2 -13 6.25
      vertex -32.2 -12.8197 6.27855
      vertex -32.2 -13 6.25
    endloop
  endfacet
  facet normal 0 -0.156435 -0.987688
    outer loop
      vertex -32.2 -13 9.75
      vertex -29.2 -12.4592 9.66435
      vertex -29.2 -13 9.75
    endloop
  endfacet
  facet normal -0 -0.156435 -0.987688
    outer loop
      vertex -29.2 -12.4592 9.66435
      vertex -32.2 -13 9.75
      vertex -32.2 -12.4592 9.66435
    endloop
  endfacet
  facet normal 0 -0.987688 -0.156433
    outer loop
      vertex -32.2 -11.3071 8.36052
      vertex -29.2 -11.3357 8.54078
      vertex -32.2 -11.3357 8.54078
    endloop
  endfacet
  facet normal 0 -0.987688 -0.156433
    outer loop
      vertex -29.2 -11.3357 8.54078
      vertex -32.2 -11.3071 8.36052
      vertex -29.2 -11.2786 8.18026
    endloop
  endfacet
  facet normal 0 0.987689 -0.156433
    outer loop
      vertex -32.2 -14.75 8
      vertex -29.2 -14.7214 8.18026
      vertex -29.2 -14.75 8
    endloop
  endfacet
  facet normal 1.69421e-007 0.987688 -0.156436
    outer loop
      vertex -29.2 -14.7214 8.18026
      vertex -32.2 -14.75 8
      vertex -32.2 -14.6929 8.36052
    endloop
  endfacet
  facet normal 0 -0.453991 0.891006
    outer loop
      vertex -32.2 -11.9714 6.58422
      vertex -29.2 -12.4592 6.33565
      vertex -29.2 -11.9714 6.58422
    endloop
  endfacet
  facet normal 0 -0.453991 0.891006
    outer loop
      vertex -29.2 -12.4592 6.33565
      vertex -32.2 -11.9714 6.58422
      vertex -32.2 -12.4592 6.33565
    endloop
  endfacet
  facet normal 0 -0.987688 0.156433
    outer loop
      vertex -32.2 -11.3357 7.45922
      vertex -29.2 -11.3071 7.63948
      vertex -32.2 -11.2786 7.81974
    endloop
  endfacet
  facet normal 0 -0.987688 0.156433
    outer loop
      vertex -29.2 -11.3071 7.63948
      vertex -32.2 -11.3357 7.45922
      vertex -29.2 -11.3357 7.45922
    endloop
  endfacet
  facet normal 0 -0.707107 -0.707107
    outer loop
      vertex -32.2 -11.5842 9.02862
      vertex -29.2 -11.9714 9.41578
      vertex -32.2 -11.9714 9.41578
    endloop
  endfacet
  facet normal 0 -0.707107 -0.707107
    outer loop
      vertex -29.2 -11.9714 9.41578
      vertex -32.2 -11.5842 9.02862
      vertex -29.2 -11.5842 9.02862
    endloop
  endfacet
  facet normal 0 -0.453991 -0.891006
    outer loop
      vertex -32.2 -12.4592 9.66435
      vertex -29.2 -11.9714 9.41578
      vertex -29.2 -12.4592 9.66435
    endloop
  endfacet
  facet normal -0 -0.453991 -0.891006
    outer loop
      vertex -29.2 -11.9714 9.41578
      vertex -32.2 -12.4592 9.66435
      vertex -32.2 -11.9714 9.41578
    endloop
  endfacet
  facet normal 0 -0.891006 -0.453991
    outer loop
      vertex -32.2 -11.3357 8.54078
      vertex -29.2 -11.5842 9.02862
      vertex -32.2 -11.5842 9.02862
    endloop
  endfacet
  facet normal 0 -0.891006 -0.453991
    outer loop
      vertex -29.2 -11.5842 9.02862
      vertex -32.2 -11.3357 8.54078
      vertex -29.2 -11.3357 8.54078
    endloop
  endfacet
  facet normal 0 0.707107 -0.707107
    outer loop
      vertex -29.2 -14.4158 9.02862
      vertex -32.2 -14.0286 9.41578
      vertex -29.2 -14.0286 9.41578
    endloop
  endfacet
  facet normal 0 0.707107 -0.707107
    outer loop
      vertex -32.2 -14.0286 9.41578
      vertex -29.2 -14.4158 9.02862
      vertex -32.2 -14.4158 9.02862
    endloop
  endfacet
  facet normal 0 0.707107 0.707107
    outer loop
      vertex -29.2 -14.0286 6.58422
      vertex -32.2 -14.4158 6.97138
      vertex -29.2 -14.4158 6.97138
    endloop
  endfacet
  facet normal 0 0.707107 0.707107
    outer loop
      vertex -32.2 -14.4158 6.97138
      vertex -29.2 -14.0286 6.58422
      vertex -32.2 -14.0286 6.58422
    endloop
  endfacet
  facet normal 0 -0.707107 0.707107
    outer loop
      vertex -32.2 -11.9714 6.58422
      vertex -29.2 -11.5842 6.97138
      vertex -32.2 -11.5842 6.97138
    endloop
  endfacet
  facet normal 0 -0.707107 0.707107
    outer loop
      vertex -29.2 -11.5842 6.97138
      vertex -32.2 -11.9714 6.58422
      vertex -29.2 -11.9714 6.58422
    endloop
  endfacet
  facet normal 0 -0.987689 0.156433
    outer loop
      vertex -32.2 -11.2786 7.81974
      vertex -29.2 -11.25 8
      vertex -32.2 -11.25 8
    endloop
  endfacet
  facet normal -1.24322e-008 -0.987689 0.156433
    outer loop
      vertex -29.2 -11.25 8
      vertex -32.2 -11.2786 7.81974
      vertex -29.2 -11.3071 7.63948
    endloop
  endfacet
  facet normal 1.24322e-008 -0.987689 -0.156433
    outer loop
      vertex -32.2 -11.25 8
      vertex -29.2 -11.2786 8.18026
      vertex -32.2 -11.3071 8.36052
    endloop
  endfacet
  facet normal 0 -0.987689 -0.156433
    outer loop
      vertex -29.2 -11.2786 8.18026
      vertex -32.2 -11.25 8
      vertex -29.2 -11.25 8
    endloop
  endfacet
  facet normal 0 0.987689 0.156433
    outer loop
      vertex -29.2 -14.75 8
      vertex -32.2 -14.7214 7.81974
      vertex -32.2 -14.75 8
    endloop
  endfacet
  facet normal -1.69421e-007 0.987688 0.156436
    outer loop
      vertex -32.2 -14.7214 7.81974
      vertex -29.2 -14.75 8
      vertex -29.2 -14.6929 7.63948
    endloop
  endfacet
  facet normal -0 0.453991 0.891006
    outer loop
      vertex -32.2 -13.5408 6.33565
      vertex -29.2 -14.0286 6.58422
      vertex -29.2 -13.5408 6.33565
    endloop
  endfacet
  facet normal 0 0.453991 0.891006
    outer loop
      vertex -29.2 -14.0286 6.58422
      vertex -32.2 -13.5408 6.33565
      vertex -32.2 -14.0286 6.58422
    endloop
  endfacet
  facet normal 0 -0.891006 0.453991
    outer loop
      vertex -32.2 -11.5842 6.97138
      vertex -29.2 -11.3357 7.45922
      vertex -32.2 -11.3357 7.45922
    endloop
  endfacet
  facet normal 0 -0.891006 0.453991
    outer loop
      vertex -29.2 -11.3357 7.45922
      vertex -32.2 -11.5842 6.97138
      vertex -29.2 -11.5842 6.97138
    endloop
  endfacet
  facet normal 0 0.891006 -0.453991
    outer loop
      vertex -29.2 -14.6643 8.54078
      vertex -32.2 -14.4158 9.02862
      vertex -29.2 -14.4158 9.02862
    endloop
  endfacet
  facet normal 0 0.891006 -0.453991
    outer loop
      vertex -32.2 -14.4158 9.02862
      vertex -29.2 -14.6643 8.54078
      vertex -32.2 -14.6643 8.54078
    endloop
  endfacet
  facet normal 0 0.891006 0.453991
    outer loop
      vertex -29.2 -14.4158 6.97138
      vertex -32.2 -14.6643 7.45922
      vertex -29.2 -14.6643 7.45922
    endloop
  endfacet
  facet normal 0 0.891006 0.453991
    outer loop
      vertex -32.2 -14.6643 7.45922
      vertex -29.2 -14.4158 6.97138
      vertex -32.2 -14.4158 6.97138
    endloop
  endfacet
  facet normal -0 0.987688 0.156433
    outer loop
      vertex -32.2 -14.6643 7.45922
      vertex -29.2 -14.6929 7.63948
      vertex -29.2 -14.6643 7.45922
    endloop
  endfacet
  facet normal -1.56989e-007 0.987688 0.156436
    outer loop
      vertex -29.2 -14.6929 7.63948
      vertex -32.2 -14.6643 7.45922
      vertex -32.2 -14.7214 7.81974
    endloop
  endfacet
  facet normal 7.84944e-008 0.156435 0.987688
    outer loop
      vertex -32.2 -13.5408 6.33565
      vertex -29.2 -13.3605 6.3071
      vertex -32.2 -13.1803 6.27855
    endloop
  endfacet
  facet normal 0 0.156436 0.987688
    outer loop
      vertex -29.2 -13.3605 6.3071
      vertex -32.2 -13.5408 6.33565
      vertex -29.2 -13.5408 6.33565
    endloop
  endfacet
  facet normal 0 0.156433 0.987688
    outer loop
      vertex -32.2 -13.1803 6.27855
      vertex -29.2 -13 6.25
      vertex -32.2 -13 6.25
    endloop
  endfacet
  facet normal 0 0.156433 0.987688
    outer loop
      vertex -29.2 -13 6.25
      vertex -32.2 -13.1803 6.27855
      vertex -29.2 -13.3605 6.3071
    endloop
  endfacet
  facet normal 0 0.987688 -0.156433
    outer loop
      vertex -29.2 -14.6643 8.54078
      vertex -32.2 -14.6929 8.36052
      vertex -32.2 -14.6643 8.54078
    endloop
  endfacet
  facet normal 1.56989e-007 0.987688 -0.156436
    outer loop
      vertex -32.2 -14.6929 8.36052
      vertex -29.2 -14.6643 8.54078
      vertex -29.2 -14.7214 8.18026
    endloop
  endfacet
  facet normal 0 0.453991 -0.891006
    outer loop
      vertex -32.2 -14.0286 9.41578
      vertex -29.2 -13.5408 9.66435
      vertex -29.2 -14.0286 9.41578
    endloop
  endfacet
  facet normal 0 0.453991 -0.891006
    outer loop
      vertex -29.2 -13.5408 9.66435
      vertex -32.2 -14.0286 9.41578
      vertex -32.2 -13.5408 9.66435
    endloop
  endfacet
  facet normal 0 0.156435 -0.987688
    outer loop
      vertex -32.2 -13.5408 9.66435
      vertex -29.2 -13 9.75
      vertex -29.2 -13.5408 9.66435
    endloop
  endfacet
  facet normal 0 0.156435 -0.987688
    outer loop
      vertex -29.2 -13 9.75
      vertex -32.2 -13.5408 9.66435
      vertex -32.2 -13 9.75
    endloop
  endfacet
  facet normal 0 -1 0
    outer loop
      vertex -32.2 -21 -1.5
      vertex -29.2 -21 15
      vertex -32.2 -21 15
    endloop
  endfacet
  facet normal 0 -1 -0
    outer loop
      vertex -29.2 -21 15
      vertex -32.2 -21 -1.5
      vertex 32.2 -21 1.5
    endloop
  endfacet
  facet normal 0 -1 -0
    outer loop
      vertex 32.2 -21 1.5
      vertex -32.2 -21 -1.5
      vertex 32.2 -21 -1.5
    endloop
  endfacet
  facet normal 0 1 0
    outer loop
      vertex 32.2 -18 1.5
      vertex -29.2 -18 1.5
      vertex -29.2 -18 15
    endloop
  endfacet
  facet normal 0.21474 0 0.976671
    outer loop
      vertex -29.2 -18 15
      vertex 32.2 -21 1.5
      vertex 32.2 -18 1.5
    endloop
  endfacet
  facet normal 0.21474 0 0.976671
    outer loop
      vertex 32.2 -21 1.5
      vertex -29.2 -18 15
      vertex -29.2 -21 15
    endloop
  endfacet
  facet normal 0 -1 0
    outer loop
      vertex -29.2 18 15
      vertex -29.2 18 1.5
      vertex 32.2 18 1.5
    endloop
  endfacet
  facet normal 0 1 0
    outer loop
      vertex -32.2 21 -1.5
      vertex -29.2 21 15
      vertex 32.2 21 1.5
    endloop
  endfacet
  facet normal 0 1 0
    outer loop
      vertex -32.2 21 -1.5
      vertex 32.2 21 1.5
      vertex 32.2 21 -1.5
    endloop
  endfacet
  facet normal 0 1 0
    outer loop
      vertex -29.2 21 15
      vertex -32.2 21 -1.5
      vertex -32.2 21 15
    endloop
  endfacet
  facet normal 0.21474 0 0.976671
    outer loop
      vertex -29.2 21 15
      vertex 32.2 18 1.5
      vertex 32.2 21 1.5
    endloop
  endfacet
  facet normal 0.21474 0 0.976671
    outer loop
      vertex 32.2 18 1.5
      vertex -29.2 21 15
      vertex -29.2 18 15
    endloop
  endfacet
endsolid OpenSCAD_Model
