solid OpenSCAD_Model
  facet normal 0 0 -1
    outer loop
      vertex -140.15 -7.64584 20.818
      vertex -140.164 -4.83817 20.818
      vertex -140.15 -2.84584 20.818
    endloop
  endfacet
  facet normal 0 0 -1
    outer loop
      vertex -144.95 -7.64584 20.818
      vertex -140.164 -4.83817 20.818
      vertex -140.15 -7.64584 20.818
    endloop
  endfacet
  facet normal -0 0 -1
    outer loop
      vertex -140.164 -4.83817 20.818
      vertex -144.95 -7.64584 20.818
      vertex -144.95 -4.83817 20.818
    endloop
  endfacet
  facet normal -0 0 -1
    outer loop
      vertex -140.15 -2.84584 20.818
      vertex -140.164 -4.83817 20.818
      vertex -140.164 -2.84584 20.818
    endloop
  endfacet
  facet normal -0 0 1
    outer loop
      vertex -144.95 -2.84584 23.265
      vertex -140.15 -7.64584 23.265
      vertex -140.15 -2.84584 23.265
    endloop
  endfacet
  facet normal 0 0 1
    outer loop
      vertex -140.15 -7.64584 23.265
      vertex -144.95 -2.84584 23.265
      vertex -144.95 -7.64584 23.265
    endloop
  endfacet
  facet normal -1 0 0
    outer loop
      vertex -144.95 -4.83817 20.818
      vertex -144.95 -7.64584 20.818
      vertex -144.95 -4.83817 22.1301
    endloop
  endfacet
  facet normal -1 0 0
    outer loop
      vertex -144.95 -4.83817 22.1301
      vertex -144.95 -2.84584 23.265
      vertex -144.95 -2.84584 22.1301
    endloop
  endfacet
  facet normal -1 0 0
    outer loop
      vertex -144.95 -7.64584 23.265
      vertex -144.95 -4.83817 22.1301
      vertex -144.95 -7.64584 20.818
    endloop
  endfacet
  facet normal -1 0 0
    outer loop
      vertex -144.95 -4.83817 22.1301
      vertex -144.95 -7.64584 23.265
      vertex -144.95 -2.84584 23.265
    endloop
  endfacet
  facet normal 0 -1 0
    outer loop
      vertex -144.95 -7.64584 20.818
      vertex -140.15 -7.64584 23.265
      vertex -144.95 -7.64584 23.265
    endloop
  endfacet
  facet normal 0 -1 -0
    outer loop
      vertex -140.15 -7.64584 23.265
      vertex -144.95 -7.64584 20.818
      vertex -140.15 -7.64584 20.818
    endloop
  endfacet
  facet normal 0 1 0
    outer loop
      vertex -140.15 -2.84584 23.265
      vertex -140.167 -2.84584 23.2649
      vertex -144.95 -2.84584 23.265
    endloop
  endfacet
  facet normal 0 1 -0
    outer loop
      vertex -140.15 -2.84584 23.2647
      vertex -140.167 -2.84584 23.2649
      vertex -140.15 -2.84584 23.265
    endloop
  endfacet
  facet normal 0 1 0
    outer loop
      vertex -140.167 -2.84584 23.2649
      vertex -140.15 -2.84584 23.2647
      vertex -140.167 -2.84584 23.2647
    endloop
  endfacet
  facet normal 0 1 -0
    outer loop
      vertex -143.15 -2.84584 23.2649
      vertex -144.95 -2.84584 23.265
      vertex -140.167 -2.84584 23.2649
    endloop
  endfacet
  facet normal 0 1 -0
    outer loop
      vertex -143.15 -2.84584 22.1301
      vertex -144.95 -2.84584 23.265
      vertex -143.15 -2.84584 23.2649
    endloop
  endfacet
  facet normal 0 1 0
    outer loop
      vertex -144.95 -2.84584 23.265
      vertex -143.15 -2.84584 22.1301
      vertex -144.95 -2.84584 22.1301
    endloop
  endfacet
  facet normal -0 0 1
    outer loop
      vertex -143.15 -2.82358 23.2649
      vertex -140.167 -2.84584 23.2649
      vertex -140.167 -2.82358 23.2649
    endloop
  endfacet
  facet normal 0 0 1
    outer loop
      vertex -140.167 -2.84584 23.2649
      vertex -143.15 -2.82358 23.2649
      vertex -143.15 -2.84584 23.2649
    endloop
  endfacet
  facet normal 1 -0 0
    outer loop
      vertex -140.167 -2.84584 23.2649
      vertex -140.167 -2.82358 23.2647
      vertex -140.167 -2.82358 23.2649
    endloop
  endfacet
  facet normal 1 0 0
    outer loop
      vertex -140.167 -2.82358 23.2647
      vertex -140.167 -2.84584 23.2649
      vertex -140.167 -2.84584 23.2647
    endloop
  endfacet
  facet normal 0 0 1
    outer loop
      vertex -147.578 12.9233 23.2647
      vertex -140.29 16.5525 23.2647
      vertex -147.578 19.3501 23.2647
    endloop
  endfacet
  facet normal 0 0 1
    outer loop
      vertex -140.29 16.5525 23.2647
      vertex -147.578 12.9233 23.2647
      vertex -143.15 11.2235 23.2647
    endloop
  endfacet
  facet normal 0 0 1
    outer loop
      vertex -140.15 16.5525 23.2647
      vertex -140.167 -2.82358 23.2647
      vertex -140.15 -2.84584 23.2647
    endloop
  endfacet
  facet normal 0 0 1
    outer loop
      vertex -143.15 11.2235 23.2647
      vertex -140.15 16.5525 23.2647
      vertex -140.29 16.5525 23.2647
    endloop
  endfacet
  facet normal 0 0 1
    outer loop
      vertex -140.15 16.5525 23.2647
      vertex -143.15 11.2235 23.2647
      vertex -140.167 -2.82358 23.2647
    endloop
  endfacet
  facet normal 0 0 1
    outer loop
      vertex -140.167 -2.82358 23.2647
      vertex -143.15 11.2235 23.2647
      vertex -143.15 -2.82358 23.2647
    endloop
  endfacet
  facet normal 0 0 1
    outer loop
      vertex -140.15 -2.84584 23.2647
      vertex -140.167 -2.82358 23.2647
      vertex -140.167 -2.84584 23.2647
    endloop
  endfacet
  facet normal 0 0 -1
    outer loop
      vertex -140.164 -2.84584 20.818
      vertex -140.15 -0.438991 20.818
      vertex -140.15 -2.84584 20.818
    endloop
  endfacet
  facet normal -0 0 -1
    outer loop
      vertex -140.15 -0.438991 20.818
      vertex -140.164 -2.84584 20.818
      vertex -140.164 -0.438991 20.818
    endloop
  endfacet
  facet normal -1 0 0
    outer loop
      vertex -143.15 -0.000175476 22.1301
      vertex -143.15 11.2235 18.45
      vertex -143.15 -0.000175476 18.45
    endloop
  endfacet
  facet normal -1 0 0
    outer loop
      vertex -143.15 11.2235 18.45
      vertex -143.15 -0.000175476 22.1301
      vertex -143.15 11.2235 23.2647
    endloop
  endfacet
  facet normal -1 0 0
    outer loop
      vertex -143.15 -0.000175476 22.1301
      vertex -143.15 -2.82358 23.2647
      vertex -143.15 11.2235 23.2647
    endloop
  endfacet
  facet normal -1 0 0
    outer loop
      vertex -143.15 -2.84584 22.1301
      vertex -143.15 -2.82358 23.2647
      vertex -143.15 -0.000175476 22.1301
    endloop
  endfacet
  facet normal -1 0 0
    outer loop
      vertex -143.15 -2.84584 23.2649
      vertex -143.15 -2.82358 23.2647
      vertex -143.15 -2.84584 22.1301
    endloop
  endfacet
  facet normal -1 0 0
    outer loop
      vertex -143.15 -2.82358 23.2647
      vertex -143.15 -2.84584 23.2649
      vertex -143.15 -2.82358 23.2649
    endloop
  endfacet
  facet normal -1.13922e-07 -2.96777e-07 -1
    outer loop
      vertex -147.578 19.3501 18.45
      vertex -143.15 11.2235 18.45
      vertex -147.578 12.9233 18.45
    endloop
  endfacet
  facet normal -1.13922e-07 -2.96777e-07 -1
    outer loop
      vertex -140.29 16.5525 18.45
      vertex -143.15 11.2235 18.45
      vertex -147.578 19.3501 18.45
    endloop
  endfacet
  facet normal 0 -3.57916e-07 -1
    outer loop
      vertex -140.29 16.5525 18.45
      vertex -140.15 16.5525 18.45
      vertex -143.15 11.2235 18.45
    endloop
  endfacet
  facet normal -1.92793e-05 -4.96134e-06 -1
    outer loop
      vertex -140.164 -0.000175476 18.45
      vertex -140.15 -0.438991 18.45
      vertex -140.164 -0.384618 18.45
    endloop
  endfacet
  facet normal 0.000132794 -1.12253e-07 -1
    outer loop
      vertex -140.15 -0.438991 18.45
      vertex -140.164 -0.000175476 18.45
      vertex -140.15 16.5525 18.45
    endloop
  endfacet
  facet normal -1.92871e-05 -4.96132e-06 -1
    outer loop
      vertex -143.15 11.2235 18.45
      vertex -140.164 -0.000175476 18.45
      vertex -140.263 -0.000175476 18.45
    endloop
  endfacet
  facet normal -6.36739e-07 5.38247e-10 -1
    outer loop
      vertex -140.164 -0.000175476 18.45
      vertex -143.15 11.2235 18.45
      vertex -140.15 16.5525 18.45
    endloop
  endfacet
  facet normal 0 0 -1
    outer loop
      vertex -143.15 11.2235 18.45
      vertex -140.263 -0.000175476 18.45
      vertex -143.15 -0.000175476 18.45
    endloop
  endfacet
  facet normal 0 0 -1
    outer loop
      vertex -140.164 -0.384618 18.45
      vertex -140.15 -0.438991 18.45
      vertex -140.164 -0.438991 18.45
    endloop
  endfacet
  facet normal 0 -1 0
    outer loop
      vertex -140.164 -0.438991 18.45
      vertex -140.15 -0.438991 20.818
      vertex -140.164 -0.438991 20.818
    endloop
  endfacet
  facet normal 0 -1 -0
    outer loop
      vertex -140.15 -0.438991 20.818
      vertex -140.164 -0.438991 18.45
      vertex -140.15 -0.438991 18.45
    endloop
  endfacet
  facet normal 1 -0 0
    outer loop
      vertex -140.15 -7.64584 23.265
      vertex -140.15 -2.84584 23.2647
      vertex -140.15 -2.84584 23.265
    endloop
  endfacet
  facet normal 1 0 0
    outer loop
      vertex -140.15 -2.84584 23.2647
      vertex -140.15 -7.64584 23.265
      vertex -140.15 -2.84584 20.818
    endloop
  endfacet
  facet normal 1 0 0
    outer loop
      vertex -140.15 -7.64584 20.818
      vertex -140.15 -2.84584 20.818
      vertex -140.15 -7.64584 23.265
    endloop
  endfacet
  facet normal 1 0 0
    outer loop
      vertex -140.15 16.5525 23.2647
      vertex -140.15 -0.438991 20.818
      vertex -140.15 16.5525 18.45
    endloop
  endfacet
  facet normal 1 -0 0
    outer loop
      vertex -140.15 -2.84584 23.2647
      vertex -140.15 -0.438991 20.818
      vertex -140.15 16.5525 23.2647
    endloop
  endfacet
  facet normal 1 0 0
    outer loop
      vertex -140.15 -0.438991 20.818
      vertex -140.15 -2.84584 23.2647
      vertex -140.15 -2.84584 20.818
    endloop
  endfacet
  facet normal 1 0 0
    outer loop
      vertex -140.15 16.5525 18.45
      vertex -140.15 -0.438991 20.818
      vertex -140.15 -0.438991 18.45
    endloop
  endfacet
  facet normal 0 1 -0
    outer loop
      vertex -140.15 16.5525 18.45
      vertex -140.29 16.5525 23.2647
      vertex -140.15 16.5525 23.2647
    endloop
  endfacet
  facet normal 0 1 0
    outer loop
      vertex -140.29 16.5525 23.2647
      vertex -140.15 16.5525 18.45
      vertex -140.29 16.5525 18.45
    endloop
  endfacet
  facet normal 0 1 -0
    outer loop
      vertex -140.167 -2.82358 23.2647
      vertex -143.15 -2.82358 23.2649
      vertex -140.167 -2.82358 23.2649
    endloop
  endfacet
  facet normal 0 1 0
    outer loop
      vertex -143.15 -2.82358 23.2649
      vertex -140.167 -2.82358 23.2647
      vertex -143.15 -2.82358 23.2647
    endloop
  endfacet
  facet normal -0.358368 -0.93358 0
    outer loop
      vertex -147.578 12.9233 18.45
      vertex -143.15 11.2235 23.2647
      vertex -147.578 12.9233 23.2647
    endloop
  endfacet
  facet normal -0.358368 -0.93358 -0
    outer loop
      vertex -143.15 11.2235 23.2647
      vertex -147.578 12.9233 18.45
      vertex -143.15 11.2235 18.45
    endloop
  endfacet
  facet normal 0.358368 0.93358 -0
    outer loop
      vertex -140.29 16.5525 18.45
      vertex -147.578 19.3501 23.2647
      vertex -140.29 16.5525 23.2647
    endloop
  endfacet
  facet normal 0.358368 0.93358 0
    outer loop
      vertex -147.578 19.3501 23.2647
      vertex -140.29 16.5525 18.45
      vertex -147.578 19.3501 18.45
    endloop
  endfacet
  facet normal -1 0 0
    outer loop
      vertex -147.578 12.9233 18.45
      vertex -147.578 19.3501 23.2647
      vertex -147.578 19.3501 18.45
    endloop
  endfacet
  facet normal -1 -0 0
    outer loop
      vertex -147.578 19.3501 23.2647
      vertex -147.578 12.9233 18.45
      vertex -147.578 12.9233 23.2647
    endloop
  endfacet
  facet normal 1 -0 0
    outer loop
      vertex -145.164 -0.000175476 20.3361
      vertex -145.164 0 18.4461
      vertex -145.164 0 20.3361
    endloop
  endfacet
  facet normal 1 0 0
    outer loop
      vertex -145.164 0 18.4461
      vertex -145.164 -0.000175476 20.3361
      vertex -145.164 -0.000175476 18.4461
    endloop
  endfacet
  facet normal 0 0 1
    outer loop
      vertex -146.201 0 22.1076
      vertex -146.664 -0.000175476 22.1076
      vertex -146.201 -0.000175476 22.1076
    endloop
  endfacet
  facet normal 0 0 1
    outer loop
      vertex -146.664 -0.000175476 22.1076
      vertex -146.743 0 22.1076
      vertex -146.664 -4.83817 22.1076
    endloop
  endfacet
  facet normal -0 0 1
    outer loop
      vertex -146.743 0 22.1076
      vertex -146.664 -0.000175476 22.1076
      vertex -146.201 0 22.1076
    endloop
  endfacet
  facet normal -0 0 1
    outer loop
      vertex -146.664 -4.83817 22.1076
      vertex -146.201 -4.83835 22.1076
      vertex -146.201 -4.83817 22.1076
    endloop
  endfacet
  facet normal 0 0 1
    outer loop
      vertex -146.664 -4.83817 22.1076
      vertex -146.743 -4.83835 22.1076
      vertex -146.201 -4.83835 22.1076
    endloop
  endfacet
  facet normal 0 0 1
    outer loop
      vertex -146.743 -4.83835 22.1076
      vertex -146.664 -4.83817 22.1076
      vertex -146.743 0 22.1076
    endloop
  endfacet
  facet normal -0 0 1
    outer loop
      vertex -145.517 0 20.3361
      vertex -145.164 -0.000175476 20.3361
      vertex -145.164 0 20.3361
    endloop
  endfacet
  facet normal 0 0 1
    outer loop
      vertex -145.164 -0.000175476 20.3361
      vertex -145.517 0 20.3361
      vertex -145.517 -0.000175476 20.3361
    endloop
  endfacet
  facet normal -0 0 1
    outer loop
      vertex -145.517 -4.83817 20.3361
      vertex -145.164 -4.83835 20.3361
      vertex -145.164 -4.83817 20.3361
    endloop
  endfacet
  facet normal 0 0 1
    outer loop
      vertex -145.164 -4.83835 20.3361
      vertex -145.517 -4.83817 20.3361
      vertex -145.517 -4.83835 20.3361
    endloop
  endfacet
  facet normal 0.933003 -0 0.359869
    outer loop
      vertex -146.201 -0.000175476 22.1076
      vertex -145.517 0 20.3361
      vertex -146.201 0 22.1076
    endloop
  endfacet
  facet normal 0.933003 0 0.359869
    outer loop
      vertex -145.517 0 20.3361
      vertex -146.201 -0.000175476 22.1076
      vertex -145.517 -0.000175476 20.3361
    endloop
  endfacet
  facet normal 0.933003 -0 0.359869
    outer loop
      vertex -146.201 -4.83835 22.1076
      vertex -145.517 -4.83817 20.3361
      vertex -146.201 -4.83817 22.1076
    endloop
  endfacet
  facet normal 0.933003 0 0.359869
    outer loop
      vertex -145.517 -4.83817 20.3361
      vertex -146.201 -4.83835 22.1076
      vertex -145.517 -4.83835 20.3361
    endloop
  endfacet
  facet normal 1 -0 0
    outer loop
      vertex -145.164 -4.83835 20.3361
      vertex -145.164 -4.83817 18.4461
      vertex -145.164 -4.83817 20.3361
    endloop
  endfacet
  facet normal 1 0 0
    outer loop
      vertex -145.164 -4.83817 18.4461
      vertex -145.164 -4.83835 20.3361
      vertex -145.164 -4.83835 18.4461
    endloop
  endfacet
  facet normal 0 1 -0
    outer loop
      vertex -145.164 0 18.4461
      vertex -145.517 0 20.3361
      vertex -145.164 0 20.3361
    endloop
  endfacet
  facet normal 0 1 0
    outer loop
      vertex -145.517 0 20.3361
      vertex -145.164 0 18.4461
      vertex -147.426 0 20.3361
    endloop
  endfacet
  facet normal 0 1 0
    outer loop
      vertex -147.426 0 20.3361
      vertex -145.164 0 18.4461
      vertex -148.133 0 20.3361
    endloop
  endfacet
  facet normal 0 1 0
    outer loop
      vertex -148.133 0 20.3361
      vertex -145.164 0 18.4461
      vertex -150.041 0 20.3361
    endloop
  endfacet
  facet normal 0 1 0
    outer loop
      vertex -150.041 0 20.3361
      vertex -145.164 0 18.4461
      vertex -150.748 0 20.3361
    endloop
  endfacet
  facet normal 0 1 0
    outer loop
      vertex -150.748 0 20.3361
      vertex -145.164 0 18.4461
      vertex -152.68 0 20.3361
    endloop
  endfacet
  facet normal 0 1 0
    outer loop
      vertex -152.68 0 20.3361
      vertex -145.164 0 18.4461
      vertex -153.387 0 20.3361
    endloop
  endfacet
  facet normal 0 1 0
    outer loop
      vertex -153.387 0 20.3361
      vertex -145.164 0 18.4461
      vertex -155.296 0 20.3361
    endloop
  endfacet
  facet normal 0 1 0
    outer loop
      vertex -155.296 0 20.3361
      vertex -145.164 0 18.4461
      vertex -156.003 0 20.3361
    endloop
  endfacet
  facet normal 0 1 0
    outer loop
      vertex -145.517 0 20.3361
      vertex -146.743 0 22.1076
      vertex -146.201 0 22.1076
    endloop
  endfacet
  facet normal 0 1 0
    outer loop
      vertex -146.743 0 22.1076
      vertex -145.517 0 20.3361
      vertex -147.426 0 20.3361
    endloop
  endfacet
  facet normal 0 1 0
    outer loop
      vertex -148.133 0 20.3361
      vertex -149.358 0 22.1076
      vertex -148.816 0 22.1076
    endloop
  endfacet
  facet normal 0 1 0
    outer loop
      vertex -149.358 0 22.1076
      vertex -148.133 0 20.3361
      vertex -150.041 0 20.3361
    endloop
  endfacet
  facet normal 0 1 0
    outer loop
      vertex -150.748 0 20.3361
      vertex -151.973 0 22.1076
      vertex -151.431 0 22.1076
    endloop
  endfacet
  facet normal 0 1 0
    outer loop
      vertex -151.973 0 22.1076
      vertex -150.748 0 20.3361
      vertex -152.68 0 20.3361
    endloop
  endfacet
  facet normal 0 1 0
    outer loop
      vertex -153.387 0 20.3361
      vertex -154.612 0 22.1076
      vertex -154.07 0 22.1076
    endloop
  endfacet
  facet normal 0 1 0
    outer loop
      vertex -154.612 0 22.1076
      vertex -153.387 0 20.3361
      vertex -155.296 0 20.3361
    endloop
  endfacet
  facet normal 0 1 0
    outer loop
      vertex -156.686 0 22.1076
      vertex -157.911 0 20.3582
      vertex -157.228 0 22.1076
    endloop
  endfacet
  facet normal 0 1 0
    outer loop
      vertex -145.164 0 18.4461
      vertex -158.618 0 20.3582
      vertex -157.911 0 20.3582
    endloop
  endfacet
  facet normal 0 1 0
    outer loop
      vertex -158.618 0 20.3582
      vertex -145.164 0 18.4461
      vertex -160.55 0 20.3582
    endloop
  endfacet
  facet normal 0 1 0
    outer loop
      vertex -160.55 0 20.3582
      vertex -145.164 0 18.4461
      vertex -161.257 0 20.3582
    endloop
  endfacet
  facet normal 0 1 0
    outer loop
      vertex -161.257 0 20.3582
      vertex -176.631 0 18.4461
      vertex -163.165 0 20.3582
    endloop
  endfacet
  facet normal 0 1 0
    outer loop
      vertex -163.165 0 20.3582
      vertex -176.631 0 18.4461
      vertex -163.872 0 20.3582
    endloop
  endfacet
  facet normal 0 1 0
    outer loop
      vertex -163.872 0 20.3582
      vertex -176.631 0 18.4461
      vertex -165.781 0 20.3582
    endloop
  endfacet
  facet normal 0 1 0
    outer loop
      vertex -165.781 0 20.3582
      vertex -176.631 0 18.4461
      vertex -166.488 0 20.3582
    endloop
  endfacet
  facet normal 0 1 0
    outer loop
      vertex -166.488 0 20.3582
      vertex -176.631 0 18.4461
      vertex -168.396 0 20.3582
    endloop
  endfacet
  facet normal 0 1 0
    outer loop
      vertex -168.396 0 20.3582
      vertex -176.631 0 18.4461
      vertex -169.127 0 20.3582
    endloop
  endfacet
  facet normal 0 1 0
    outer loop
      vertex -169.127 0 20.3582
      vertex -176.631 0 18.4461
      vertex -171.035 0 20.3582
    endloop
  endfacet
  facet normal 0 1 0
    outer loop
      vertex -171.035 0 20.3582
      vertex -176.631 0 18.4461
      vertex -171.742 0 20.3582
    endloop
  endfacet
  facet normal 0 1 0
    outer loop
      vertex -171.742 0 20.3582
      vertex -176.631 0 18.4461
      vertex -173.651 0 20.3582
    endloop
  endfacet
  facet normal 0 1 0
    outer loop
      vertex -173.651 0 20.3582
      vertex -176.631 0 18.4461
      vertex -174.357 0 20.3582
    endloop
  endfacet
  facet normal 0 1 0
    outer loop
      vertex -174.357 0 20.3582
      vertex -176.631 0 18.4461
      vertex -176.266 0 20.3582
    endloop
  endfacet
  facet normal 0 1 0
    outer loop
      vertex -156.003 0 20.3361
      vertex -157.911 0 20.3582
      vertex -156.686 0 22.1076
    endloop
  endfacet
  facet normal 0 1 0
    outer loop
      vertex -145.164 0 18.4461
      vertex -157.911 0 20.3582
      vertex -156.003 0 20.3361
    endloop
  endfacet
  facet normal 0 1 0
    outer loop
      vertex -161.257 0 20.3582
      vertex -145.164 0 18.4461
      vertex -176.631 0 18.4461
    endloop
  endfacet
  facet normal 0 1 0
    outer loop
      vertex -176.266 0 20.3582
      vertex -176.631 0 18.4461
      vertex -176.631 0 20.3582
    endloop
  endfacet
  facet normal 0 1 0
    outer loop
      vertex -158.618 0 20.3582
      vertex -159.843 0 22.1076
      vertex -159.301 0 22.1076
    endloop
  endfacet
  facet normal 0 1 0
    outer loop
      vertex -159.843 0 22.1076
      vertex -158.618 0 20.3582
      vertex -160.55 0 20.3582
    endloop
  endfacet
  facet normal 0 1 0
    outer loop
      vertex -161.257 0 20.3582
      vertex -162.482 0 22.1076
      vertex -161.94 0 22.1076
    endloop
  endfacet
  facet normal 0 1 0
    outer loop
      vertex -162.482 0 22.1076
      vertex -161.257 0 20.3582
      vertex -163.165 0 20.3582
    endloop
  endfacet
  facet normal 0 1 0
    outer loop
      vertex -163.872 0 20.3582
      vertex -165.098 0 22.1298
      vertex -164.556 0 22.1298
    endloop
  endfacet
  facet normal 0 1 0
    outer loop
      vertex -165.098 0 22.1298
      vertex -163.872 0 20.3582
      vertex -165.781 0 20.3582
    endloop
  endfacet
  facet normal 0 1 0
    outer loop
      vertex -166.488 0 20.3582
      vertex -167.713 0 22.1298
      vertex -167.171 0 22.1298
    endloop
  endfacet
  facet normal 0 1 0
    outer loop
      vertex -167.713 0 22.1298
      vertex -166.488 0 20.3582
      vertex -168.396 0 20.3582
    endloop
  endfacet
  facet normal 0 1 0
    outer loop
      vertex -169.127 0 20.3582
      vertex -170.352 0 22.1298
      vertex -169.81 0 22.1298
    endloop
  endfacet
  facet normal 0 1 0
    outer loop
      vertex -170.352 0 22.1298
      vertex -169.127 0 20.3582
      vertex -171.035 0 20.3582
    endloop
  endfacet
  facet normal 0 1 0
    outer loop
      vertex -171.742 0 20.3582
      vertex -172.967 0 22.1298
      vertex -172.425 0 22.1298
    endloop
  endfacet
  facet normal 0 1 0
    outer loop
      vertex -172.967 0 22.1298
      vertex -171.742 0 20.3582
      vertex -173.651 0 20.3582
    endloop
  endfacet
  facet normal 0 1 0
    outer loop
      vertex -174.357 0 20.3582
      vertex -175.583 0 22.1298
      vertex -175.041 0 22.1298
    endloop
  endfacet
  facet normal 0 1 0
    outer loop
      vertex -175.583 0 22.1298
      vertex -174.357 0 20.3582
      vertex -176.266 0 20.3582
    endloop
  endfacet
  facet normal -0 0 1
    outer loop
      vertex -162.482 0 22.1076
      vertex -161.94 -4.83835 22.1076
      vertex -161.94 0 22.1076
    endloop
  endfacet
  facet normal 0 0 1
    outer loop
      vertex -161.94 -4.83835 22.1076
      vertex -162.482 0 22.1076
      vertex -162.482 -4.83835 22.1076
    endloop
  endfacet
  facet normal 0.931467 -0 0.363825
    outer loop
      vertex -161.94 -4.83835 22.1076
      vertex -161.257 0 20.3582
      vertex -161.94 0 22.1076
    endloop
  endfacet
  facet normal 0.931467 0 0.363825
    outer loop
      vertex -161.257 0 20.3582
      vertex -161.94 -4.83835 22.1076
      vertex -161.257 -4.83835 20.3582
    endloop
  endfacet
  facet normal -0 0 1
    outer loop
      vertex -161.257 0 20.3582
      vertex -160.55 -4.83835 20.3582
      vertex -160.55 0 20.3582
    endloop
  endfacet
  facet normal 0 0 1
    outer loop
      vertex -160.55 -4.83835 20.3582
      vertex -161.257 0 20.3582
      vertex -161.257 -4.83835 20.3582
    endloop
  endfacet
  facet normal -0.927173 0 0.374634
    outer loop
      vertex -160.55 -4.83835 20.3582
      vertex -159.843 0 22.1076
      vertex -160.55 0 20.3582
    endloop
  endfacet
  facet normal -0.927173 0 0.374634
    outer loop
      vertex -159.843 0 22.1076
      vertex -160.55 -4.83835 20.3582
      vertex -159.843 -4.83835 22.1076
    endloop
  endfacet
  facet normal -0 0 1
    outer loop
      vertex -159.843 0 22.1076
      vertex -159.301 -4.83835 22.1076
      vertex -159.301 0 22.1076
    endloop
  endfacet
  facet normal 0 0 1
    outer loop
      vertex -159.301 -4.83835 22.1076
      vertex -159.843 0 22.1076
      vertex -159.843 -4.83835 22.1076
    endloop
  endfacet
  facet normal 0.93147 -0 0.363818
    outer loop
      vertex -159.301 -4.83835 22.1076
      vertex -158.618 0 20.3582
      vertex -159.301 0 22.1076
    endloop
  endfacet
  facet normal 0.93147 0 0.363818
    outer loop
      vertex -158.618 0 20.3582
      vertex -159.301 -4.83835 22.1076
      vertex -158.618 -4.83835 20.3582
    endloop
  endfacet
  facet normal -0 0 1
    outer loop
      vertex -158.618 0 20.3582
      vertex -157.911 -4.83835 20.3582
      vertex -157.911 0 20.3582
    endloop
  endfacet
  facet normal 0 0 1
    outer loop
      vertex -157.911 -4.83835 20.3582
      vertex -158.618 0 20.3582
      vertex -158.618 -4.83835 20.3582
    endloop
  endfacet
  facet normal -0.931467 0 0.363825
    outer loop
      vertex -157.911 -4.83835 20.3582
      vertex -157.228 0 22.1076
      vertex -157.911 0 20.3582
    endloop
  endfacet
  facet normal -0.931467 0 0.363825
    outer loop
      vertex -157.228 0 22.1076
      vertex -157.911 -4.83835 20.3582
      vertex -157.228 -4.83835 22.1076
    endloop
  endfacet
  facet normal -0 0 1
    outer loop
      vertex -157.228 0 22.1076
      vertex -156.686 -4.83835 22.1076
      vertex -156.686 0 22.1076
    endloop
  endfacet
  facet normal 0 0 1
    outer loop
      vertex -156.686 -4.83835 22.1076
      vertex -157.228 0 22.1076
      vertex -157.228 -4.83835 22.1076
    endloop
  endfacet
  facet normal 0.933003 -0 0.359869
    outer loop
      vertex -156.686 -4.83835 22.1076
      vertex -156.003 0 20.3361
      vertex -156.686 0 22.1076
    endloop
  endfacet
  facet normal 0.933003 0 0.359869
    outer loop
      vertex -156.003 0 20.3361
      vertex -156.686 -4.83835 22.1076
      vertex -156.003 -4.83835 20.3361
    endloop
  endfacet
  facet normal -0 0 1
    outer loop
      vertex -156.003 0 20.3361
      vertex -155.296 -4.83835 20.3361
      vertex -155.296 0 20.3361
    endloop
  endfacet
  facet normal 0 0 1
    outer loop
      vertex -155.296 -4.83835 20.3361
      vertex -156.003 0 20.3361
      vertex -156.003 -4.83835 20.3361
    endloop
  endfacet
  facet normal -0.933006 0 0.359862
    outer loop
      vertex -155.296 -4.83835 20.3361
      vertex -154.612 0 22.1076
      vertex -155.296 0 20.3361
    endloop
  endfacet
  facet normal -0.933006 0 0.359862
    outer loop
      vertex -154.612 0 22.1076
      vertex -155.296 -4.83835 20.3361
      vertex -154.612 -4.83835 22.1076
    endloop
  endfacet
  facet normal -0 0 1
    outer loop
      vertex -154.612 0 22.1076
      vertex -154.07 -4.83835 22.1076
      vertex -154.07 0 22.1076
    endloop
  endfacet
  facet normal 0 0 1
    outer loop
      vertex -154.07 -4.83835 22.1076
      vertex -154.612 0 22.1076
      vertex -154.612 -4.83835 22.1076
    endloop
  endfacet
  facet normal 0.933003 -0 0.359869
    outer loop
      vertex -154.07 -4.83835 22.1076
      vertex -153.387 0 20.3361
      vertex -154.07 0 22.1076
    endloop
  endfacet
  facet normal 0.933003 0 0.359869
    outer loop
      vertex -153.387 0 20.3361
      vertex -154.07 -4.83835 22.1076
      vertex -153.387 -4.83835 20.3361
    endloop
  endfacet
  facet normal -0 0 1
    outer loop
      vertex -153.387 0 20.3361
      vertex -152.68 -4.83835 20.3361
      vertex -152.68 0 20.3361
    endloop
  endfacet
  facet normal 0 0 1
    outer loop
      vertex -152.68 -4.83835 20.3361
      vertex -153.387 0 20.3361
      vertex -153.387 -4.83835 20.3361
    endloop
  endfacet
  facet normal -0.928794 0 0.370597
    outer loop
      vertex -152.68 -4.83835 20.3361
      vertex -151.973 0 22.1076
      vertex -152.68 0 20.3361
    endloop
  endfacet
  facet normal -0.928794 0 0.370597
    outer loop
      vertex -151.973 0 22.1076
      vertex -152.68 -4.83835 20.3361
      vertex -151.973 -4.83835 22.1076
    endloop
  endfacet
  facet normal -0 0 1
    outer loop
      vertex -151.973 0 22.1076
      vertex -151.431 -4.83835 22.1076
      vertex -151.431 0 22.1076
    endloop
  endfacet
  facet normal 0 0 1
    outer loop
      vertex -151.431 -4.83835 22.1076
      vertex -151.973 0 22.1076
      vertex -151.973 -4.83835 22.1076
    endloop
  endfacet
  facet normal 0.933006 -0 0.359862
    outer loop
      vertex -151.431 -4.83835 22.1076
      vertex -150.748 0 20.3361
      vertex -151.431 0 22.1076
    endloop
  endfacet
  facet normal 0.933006 0 0.359862
    outer loop
      vertex -150.748 0 20.3361
      vertex -151.431 -4.83835 22.1076
      vertex -150.748 -4.83835 20.3361
    endloop
  endfacet
  facet normal -0 0 1
    outer loop
      vertex -150.748 0 20.3361
      vertex -150.041 -4.83835 20.3361
      vertex -150.041 0 20.3361
    endloop
  endfacet
  facet normal 0 0 1
    outer loop
      vertex -150.041 -4.83835 20.3361
      vertex -150.748 0 20.3361
      vertex -150.748 -4.83835 20.3361
    endloop
  endfacet
  facet normal -0.933006 0 0.359862
    outer loop
      vertex -150.041 -4.83835 20.3361
      vertex -149.358 0 22.1076
      vertex -150.041 0 20.3361
    endloop
  endfacet
  facet normal -0.933006 0 0.359862
    outer loop
      vertex -149.358 0 22.1076
      vertex -150.041 -4.83835 20.3361
      vertex -149.358 -4.83835 22.1076
    endloop
  endfacet
  facet normal -0 0 1
    outer loop
      vertex -149.358 0 22.1076
      vertex -148.816 -4.83835 22.1076
      vertex -148.816 0 22.1076
    endloop
  endfacet
  facet normal 0 0 1
    outer loop
      vertex -148.816 -4.83835 22.1076
      vertex -149.358 0 22.1076
      vertex -149.358 -4.83835 22.1076
    endloop
  endfacet
  facet normal 0.933003 -0 0.359869
    outer loop
      vertex -148.816 -4.83835 22.1076
      vertex -148.133 0 20.3361
      vertex -148.816 0 22.1076
    endloop
  endfacet
  facet normal 0.933003 0 0.359869
    outer loop
      vertex -148.133 0 20.3361
      vertex -148.816 -4.83835 22.1076
      vertex -148.133 -4.83835 20.3361
    endloop
  endfacet
  facet normal -0 0 1
    outer loop
      vertex -148.133 0 20.3361
      vertex -147.426 -4.83835 20.3361
      vertex -147.426 0 20.3361
    endloop
  endfacet
  facet normal 0 0 1
    outer loop
      vertex -147.426 -4.83835 20.3361
      vertex -148.133 0 20.3361
      vertex -148.133 -4.83835 20.3361
    endloop
  endfacet
  facet normal -0.933003 0 0.359869
    outer loop
      vertex -147.426 -4.83835 20.3361
      vertex -146.743 0 22.1076
      vertex -147.426 0 20.3361
    endloop
  endfacet
  facet normal -0.933003 0 0.359869
    outer loop
      vertex -146.743 0 22.1076
      vertex -147.426 -4.83835 20.3361
      vertex -146.743 -4.83835 22.1076
    endloop
  endfacet
  facet normal -1 0 0
    outer loop
      vertex -176.631 -4.83835 18.4461
      vertex -176.631 0 20.3582
      vertex -176.631 0 18.4461
    endloop
  endfacet
  facet normal -1 -0 0
    outer loop
      vertex -176.631 0 20.3582
      vertex -176.631 -4.83835 18.4461
      vertex -176.631 -4.83835 20.3582
    endloop
  endfacet
  facet normal -2.612e-05 0 1
    outer loop
      vertex -176.631 0 20.3582
      vertex -176.266 -4.83835 20.3582
      vertex -176.266 0 20.3582
    endloop
  endfacet
  facet normal -2.612e-05 0 1
    outer loop
      vertex -176.266 -4.83835 20.3582
      vertex -176.631 0 20.3582
      vertex -176.631 -4.83835 20.3582
    endloop
  endfacet
  facet normal -0.933003 0 0.359869
    outer loop
      vertex -176.266 -4.83835 20.3582
      vertex -175.583 0 22.1298
      vertex -176.266 0 20.3582
    endloop
  endfacet
  facet normal -0.933003 0 0.359869
    outer loop
      vertex -175.583 0 22.1298
      vertex -176.266 -4.83835 20.3582
      vertex -175.583 -4.83835 22.1298
    endloop
  endfacet
  facet normal -0 0 1
    outer loop
      vertex -175.583 0 22.1298
      vertex -175.041 -4.83835 22.1298
      vertex -175.041 0 22.1298
    endloop
  endfacet
  facet normal 0 0 1
    outer loop
      vertex -175.041 -4.83835 22.1298
      vertex -175.583 0 22.1298
      vertex -175.583 -4.83835 22.1298
    endloop
  endfacet
  facet normal 0.933006 -0 0.359862
    outer loop
      vertex -175.041 -4.83835 22.1298
      vertex -174.357 0 20.3582
      vertex -175.041 0 22.1298
    endloop
  endfacet
  facet normal 0.933006 0 0.359862
    outer loop
      vertex -174.357 0 20.3582
      vertex -175.041 -4.83835 22.1298
      vertex -174.357 -4.83835 20.3582
    endloop
  endfacet
  facet normal -0 0 1
    outer loop
      vertex -174.357 0 20.3582
      vertex -173.651 -4.83835 20.3582
      vertex -173.651 0 20.3582
    endloop
  endfacet
  facet normal 0 0 1
    outer loop
      vertex -173.651 -4.83835 20.3582
      vertex -174.357 0 20.3582
      vertex -174.357 -4.83835 20.3582
    endloop
  endfacet
  facet normal -0.933003 0 0.359869
    outer loop
      vertex -173.651 -4.83835 20.3582
      vertex -172.967 0 22.1298
      vertex -173.651 0 20.3582
    endloop
  endfacet
  facet normal -0.933003 0 0.359869
    outer loop
      vertex -172.967 0 22.1298
      vertex -173.651 -4.83835 20.3582
      vertex -172.967 -4.83835 22.1298
    endloop
  endfacet
  facet normal -0 0 1
    outer loop
      vertex -172.967 0 22.1298
      vertex -172.425 -4.83835 22.1298
      vertex -172.425 0 22.1298
    endloop
  endfacet
  facet normal 0 0 1
    outer loop
      vertex -172.425 -4.83835 22.1298
      vertex -172.967 0 22.1298
      vertex -172.967 -4.83835 22.1298
    endloop
  endfacet
  facet normal 0.933003 -0 0.359869
    outer loop
      vertex -172.425 -4.83835 22.1298
      vertex -171.742 0 20.3582
      vertex -172.425 0 22.1298
    endloop
  endfacet
  facet normal 0.933003 0 0.359869
    outer loop
      vertex -171.742 0 20.3582
      vertex -172.425 -4.83835 22.1298
      vertex -171.742 -4.83835 20.3582
    endloop
  endfacet
  facet normal -0 0 1
    outer loop
      vertex -171.742 0 20.3582
      vertex -171.035 -4.83835 20.3582
      vertex -171.035 0 20.3582
    endloop
  endfacet
  facet normal 0 0 1
    outer loop
      vertex -171.035 -4.83835 20.3582
      vertex -171.742 0 20.3582
      vertex -171.742 -4.83835 20.3582
    endloop
  endfacet
  facet normal -0.933006 0 0.359862
    outer loop
      vertex -171.035 -4.83835 20.3582
      vertex -170.352 0 22.1298
      vertex -171.035 0 20.3582
    endloop
  endfacet
  facet normal -0.933006 0 0.359862
    outer loop
      vertex -170.352 0 22.1298
      vertex -171.035 -4.83835 20.3582
      vertex -170.352 -4.83835 22.1298
    endloop
  endfacet
  facet normal -0 0 1
    outer loop
      vertex -170.352 0 22.1298
      vertex -169.81 -4.83835 22.1298
      vertex -169.81 0 22.1298
    endloop
  endfacet
  facet normal 0 0 1
    outer loop
      vertex -169.81 -4.83835 22.1298
      vertex -170.352 0 22.1298
      vertex -170.352 -4.83835 22.1298
    endloop
  endfacet
  facet normal 0.933003 -0 0.359869
    outer loop
      vertex -169.81 -4.83835 22.1298
      vertex -169.127 0 20.3582
      vertex -169.81 0 22.1298
    endloop
  endfacet
  facet normal 0.933003 0 0.359869
    outer loop
      vertex -169.127 0 20.3582
      vertex -169.81 -4.83835 22.1298
      vertex -169.127 -4.83835 20.3582
    endloop
  endfacet
  facet normal -0 0 1
    outer loop
      vertex -169.127 0 20.3582
      vertex -168.396 -4.83835 20.3582
      vertex -168.396 0 20.3582
    endloop
  endfacet
  facet normal 0 0 1
    outer loop
      vertex -168.396 -4.83835 20.3582
      vertex -169.127 0 20.3582
      vertex -169.127 -4.83835 20.3582
    endloop
  endfacet
  facet normal -0.933003 0 0.359869
    outer loop
      vertex -168.396 -4.83835 20.3582
      vertex -167.713 0 22.1298
      vertex -168.396 0 20.3582
    endloop
  endfacet
  facet normal -0.933003 0 0.359869
    outer loop
      vertex -167.713 0 22.1298
      vertex -168.396 -4.83835 20.3582
      vertex -167.713 -4.83835 22.1298
    endloop
  endfacet
  facet normal -0 0 1
    outer loop
      vertex -167.713 0 22.1298
      vertex -167.171 -4.83835 22.1298
      vertex -167.171 0 22.1298
    endloop
  endfacet
  facet normal 0 0 1
    outer loop
      vertex -167.171 -4.83835 22.1298
      vertex -167.713 0 22.1298
      vertex -167.713 -4.83835 22.1298
    endloop
  endfacet
  facet normal 0.933006 -0 0.359862
    outer loop
      vertex -167.171 -4.83835 22.1298
      vertex -166.488 0 20.3582
      vertex -167.171 0 22.1298
    endloop
  endfacet
  facet normal 0.933006 0 0.359862
    outer loop
      vertex -166.488 0 20.3582
      vertex -167.171 -4.83835 22.1298
      vertex -166.488 -4.83835 20.3582
    endloop
  endfacet
  facet normal -0 0 1
    outer loop
      vertex -166.488 0 20.3582
      vertex -165.781 -4.83835 20.3582
      vertex -165.781 0 20.3582
    endloop
  endfacet
  facet normal 0 0 1
    outer loop
      vertex -165.781 -4.83835 20.3582
      vertex -166.488 0 20.3582
      vertex -166.488 -4.83835 20.3582
    endloop
  endfacet
  facet normal -0.933003 0 0.359869
    outer loop
      vertex -165.781 -4.83835 20.3582
      vertex -165.098 0 22.1298
      vertex -165.781 0 20.3582
    endloop
  endfacet
  facet normal -0.933003 0 0.359869
    outer loop
      vertex -165.098 0 22.1298
      vertex -165.781 -4.83835 20.3582
      vertex -165.098 -4.83835 22.1298
    endloop
  endfacet
  facet normal -0 0 1
    outer loop
      vertex -165.098 0 22.1298
      vertex -164.556 -4.83835 22.1298
      vertex -164.556 0 22.1298
    endloop
  endfacet
  facet normal 0 0 1
    outer loop
      vertex -164.556 -4.83835 22.1298
      vertex -165.098 0 22.1298
      vertex -165.098 -4.83835 22.1298
    endloop
  endfacet
  facet normal 0.933003 -0 0.359869
    outer loop
      vertex -164.556 -4.83835 22.1298
      vertex -163.872 0 20.3582
      vertex -164.556 0 22.1298
    endloop
  endfacet
  facet normal 0.933003 0 0.359869
    outer loop
      vertex -163.872 0 20.3582
      vertex -164.556 -4.83835 22.1298
      vertex -163.872 -4.83835 20.3582
    endloop
  endfacet
  facet normal -0 0 1
    outer loop
      vertex -163.872 0 20.3582
      vertex -163.165 -4.83835 20.3582
      vertex -163.165 0 20.3582
    endloop
  endfacet
  facet normal 0 0 1
    outer loop
      vertex -163.165 -4.83835 20.3582
      vertex -163.872 0 20.3582
      vertex -163.872 -4.83835 20.3582
    endloop
  endfacet
  facet normal -0.93147 0 0.363818
    outer loop
      vertex -163.165 -4.83835 20.3582
      vertex -162.482 0 22.1076
      vertex -163.165 0 20.3582
    endloop
  endfacet
  facet normal -0.93147 0 0.363818
    outer loop
      vertex -162.482 0 22.1076
      vertex -163.165 -4.83835 20.3582
      vertex -162.482 -4.83835 22.1076
    endloop
  endfacet
  facet normal 0 -1 0
    outer loop
      vertex -176.266 -4.83835 20.3582
      vertex -175.041 -4.83835 22.1298
      vertex -175.583 -4.83835 22.1298
    endloop
  endfacet
  facet normal 0 -1 0
    outer loop
      vertex -176.266 -4.83835 20.3582
      vertex -174.357 -4.83835 20.3582
      vertex -175.041 -4.83835 22.1298
    endloop
  endfacet
  facet normal 0 -1 0
    outer loop
      vertex -176.631 -4.83835 18.4461
      vertex -174.357 -4.83835 20.3582
      vertex -176.266 -4.83835 20.3582
    endloop
  endfacet
  facet normal 0 -1 -0
    outer loop
      vertex -174.357 -4.83835 20.3582
      vertex -176.631 -4.83835 18.4461
      vertex -173.651 -4.83835 20.3582
    endloop
  endfacet
  facet normal 0 -1 -0
    outer loop
      vertex -173.651 -4.83835 20.3582
      vertex -176.631 -4.83835 18.4461
      vertex -171.742 -4.83835 20.3582
    endloop
  endfacet
  facet normal 0 -1 -0
    outer loop
      vertex -171.742 -4.83835 20.3582
      vertex -176.631 -4.83835 18.4461
      vertex -171.035 -4.83835 20.3582
    endloop
  endfacet
  facet normal 0 -1 -0
    outer loop
      vertex -171.035 -4.83835 20.3582
      vertex -176.631 -4.83835 18.4461
      vertex -169.127 -4.83835 20.3582
    endloop
  endfacet
  facet normal 0 -1 -0
    outer loop
      vertex -169.127 -4.83835 20.3582
      vertex -176.631 -4.83835 18.4461
      vertex -168.396 -4.83835 20.3582
    endloop
  endfacet
  facet normal 0 -1 -0
    outer loop
      vertex -168.396 -4.83835 20.3582
      vertex -176.631 -4.83835 18.4461
      vertex -166.488 -4.83835 20.3582
    endloop
  endfacet
  facet normal 0 -1 -0
    outer loop
      vertex -166.488 -4.83835 20.3582
      vertex -176.631 -4.83835 18.4461
      vertex -165.781 -4.83835 20.3582
    endloop
  endfacet
  facet normal 0 -1 -0
    outer loop
      vertex -165.781 -4.83835 20.3582
      vertex -176.631 -4.83835 18.4461
      vertex -163.872 -4.83835 20.3582
    endloop
  endfacet
  facet normal 0 -1 -0
    outer loop
      vertex -163.872 -4.83835 20.3582
      vertex -176.631 -4.83835 18.4461
      vertex -163.165 -4.83835 20.3582
    endloop
  endfacet
  facet normal 0 -1 -0
    outer loop
      vertex -163.165 -4.83835 20.3582
      vertex -176.631 -4.83835 18.4461
      vertex -161.257 -4.83835 20.3582
    endloop
  endfacet
  facet normal 0 -1 -0
    outer loop
      vertex -161.257 -4.83835 20.3582
      vertex -176.631 -4.83835 18.4461
      vertex -160.55 -4.83835 20.3582
    endloop
  endfacet
  facet normal 0 -1 0
    outer loop
      vertex -145.164 -4.83835 18.4461
      vertex -160.55 -4.83835 20.3582
      vertex -176.631 -4.83835 18.4461
    endloop
  endfacet
  facet normal 0 -1 0
    outer loop
      vertex -176.631 -4.83835 18.4461
      vertex -176.266 -4.83835 20.3582
      vertex -176.631 -4.83835 20.3582
    endloop
  endfacet
  facet normal 0 -1 0
    outer loop
      vertex -173.651 -4.83835 20.3582
      vertex -172.425 -4.83835 22.1298
      vertex -172.967 -4.83835 22.1298
    endloop
  endfacet
  facet normal 0 -1 -0
    outer loop
      vertex -172.425 -4.83835 22.1298
      vertex -173.651 -4.83835 20.3582
      vertex -171.742 -4.83835 20.3582
    endloop
  endfacet
  facet normal 0 -1 0
    outer loop
      vertex -171.035 -4.83835 20.3582
      vertex -169.81 -4.83835 22.1298
      vertex -170.352 -4.83835 22.1298
    endloop
  endfacet
  facet normal 0 -1 -0
    outer loop
      vertex -169.81 -4.83835 22.1298
      vertex -171.035 -4.83835 20.3582
      vertex -169.127 -4.83835 20.3582
    endloop
  endfacet
  facet normal 0 -1 0
    outer loop
      vertex -168.396 -4.83835 20.3582
      vertex -167.171 -4.83835 22.1298
      vertex -167.713 -4.83835 22.1298
    endloop
  endfacet
  facet normal 0 -1 -0
    outer loop
      vertex -167.171 -4.83835 22.1298
      vertex -168.396 -4.83835 20.3582
      vertex -166.488 -4.83835 20.3582
    endloop
  endfacet
  facet normal 0 -1 0
    outer loop
      vertex -165.781 -4.83835 20.3582
      vertex -164.556 -4.83835 22.1298
      vertex -165.098 -4.83835 22.1298
    endloop
  endfacet
  facet normal 0 -1 -0
    outer loop
      vertex -164.556 -4.83835 22.1298
      vertex -165.781 -4.83835 20.3582
      vertex -163.872 -4.83835 20.3582
    endloop
  endfacet
  facet normal 0 -1 0
    outer loop
      vertex -163.165 -4.83835 20.3582
      vertex -161.94 -4.83835 22.1076
      vertex -162.482 -4.83835 22.1076
    endloop
  endfacet
  facet normal 0 -1 -0
    outer loop
      vertex -161.94 -4.83835 22.1076
      vertex -163.165 -4.83835 20.3582
      vertex -161.257 -4.83835 20.3582
    endloop
  endfacet
  facet normal 0 -1 0
    outer loop
      vertex -158.618 -4.83835 20.3582
      vertex -159.843 -4.83835 22.1076
      vertex -160.55 -4.83835 20.3582
    endloop
  endfacet
  facet normal 0 -1 0
    outer loop
      vertex -159.843 -4.83835 22.1076
      vertex -158.618 -4.83835 20.3582
      vertex -159.301 -4.83835 22.1076
    endloop
  endfacet
  facet normal 0 -1 0
    outer loop
      vertex -157.911 -4.83835 20.3582
      vertex -156.686 -4.83835 22.1076
      vertex -157.228 -4.83835 22.1076
    endloop
  endfacet
  facet normal 0 -1 0
    outer loop
      vertex -157.911 -4.83835 20.3582
      vertex -156.003 -4.83835 20.3361
      vertex -156.686 -4.83835 22.1076
    endloop
  endfacet
  facet normal 0 -1 0
    outer loop
      vertex -160.55 -4.83835 20.3582
      vertex -145.164 -4.83835 18.4461
      vertex -158.618 -4.83835 20.3582
    endloop
  endfacet
  facet normal 0 -1 0
    outer loop
      vertex -145.164 -4.83835 18.4461
      vertex -155.296 -4.83835 20.3361
      vertex -156.003 -4.83835 20.3361
    endloop
  endfacet
  facet normal 0 -1 0
    outer loop
      vertex -155.296 -4.83835 20.3361
      vertex -145.164 -4.83835 18.4461
      vertex -153.387 -4.83835 20.3361
    endloop
  endfacet
  facet normal 0 -1 0
    outer loop
      vertex -153.387 -4.83835 20.3361
      vertex -145.164 -4.83835 18.4461
      vertex -152.68 -4.83835 20.3361
    endloop
  endfacet
  facet normal 0 -1 0
    outer loop
      vertex -152.68 -4.83835 20.3361
      vertex -145.164 -4.83835 18.4461
      vertex -150.748 -4.83835 20.3361
    endloop
  endfacet
  facet normal 0 -1 0
    outer loop
      vertex -150.748 -4.83835 20.3361
      vertex -145.164 -4.83835 18.4461
      vertex -150.041 -4.83835 20.3361
    endloop
  endfacet
  facet normal 0 -1 0
    outer loop
      vertex -150.041 -4.83835 20.3361
      vertex -145.164 -4.83835 18.4461
      vertex -148.133 -4.83835 20.3361
    endloop
  endfacet
  facet normal 0 -1 0
    outer loop
      vertex -148.133 -4.83835 20.3361
      vertex -145.164 -4.83835 18.4461
      vertex -147.426 -4.83835 20.3361
    endloop
  endfacet
  facet normal 0 -1 0
    outer loop
      vertex -147.426 -4.83835 20.3361
      vertex -145.164 -4.83835 18.4461
      vertex -145.517 -4.83835 20.3361
    endloop
  endfacet
  facet normal 0 -1 0
    outer loop
      vertex -158.618 -4.83835 20.3582
      vertex -145.164 -4.83835 18.4461
      vertex -157.911 -4.83835 20.3582
    endloop
  endfacet
  facet normal 0 -1 0
    outer loop
      vertex -157.911 -4.83835 20.3582
      vertex -145.164 -4.83835 18.4461
      vertex -156.003 -4.83835 20.3361
    endloop
  endfacet
  facet normal 0 -1 0
    outer loop
      vertex -145.517 -4.83835 20.3361
      vertex -145.164 -4.83835 18.4461
      vertex -145.164 -4.83835 20.3361
    endloop
  endfacet
  facet normal 0 -1 0
    outer loop
      vertex -155.296 -4.83835 20.3361
      vertex -154.07 -4.83835 22.1076
      vertex -154.612 -4.83835 22.1076
    endloop
  endfacet
  facet normal 0 -1 -0
    outer loop
      vertex -154.07 -4.83835 22.1076
      vertex -155.296 -4.83835 20.3361
      vertex -153.387 -4.83835 20.3361
    endloop
  endfacet
  facet normal 0 -1 0
    outer loop
      vertex -150.748 -4.83835 20.3361
      vertex -151.973 -4.83835 22.1076
      vertex -152.68 -4.83835 20.3361
    endloop
  endfacet
  facet normal 0 -1 0
    outer loop
      vertex -151.973 -4.83835 22.1076
      vertex -150.748 -4.83835 20.3361
      vertex -151.431 -4.83835 22.1076
    endloop
  endfacet
  facet normal 0 -1 0
    outer loop
      vertex -150.041 -4.83835 20.3361
      vertex -148.816 -4.83835 22.1076
      vertex -149.358 -4.83835 22.1076
    endloop
  endfacet
  facet normal 0 -1 -0
    outer loop
      vertex -148.816 -4.83835 22.1076
      vertex -150.041 -4.83835 20.3361
      vertex -148.133 -4.83835 20.3361
    endloop
  endfacet
  facet normal 0 -1 0
    outer loop
      vertex -147.426 -4.83835 20.3361
      vertex -146.201 -4.83835 22.1076
      vertex -146.743 -4.83835 22.1076
    endloop
  endfacet
  facet normal 0 -1 -0
    outer loop
      vertex -146.201 -4.83835 22.1076
      vertex -147.426 -4.83835 20.3361
      vertex -145.517 -4.83835 20.3361
    endloop
  endfacet
  facet normal 0 0 -1
    outer loop
      vertex -176.631 -4.83835 18.4461
      vertex -145.164 -4.83817 18.4461
      vertex -145.164 -4.83835 18.4461
    endloop
  endfacet
  facet normal -0 0 -1
    outer loop
      vertex -145.164 -4.83817 18.4461
      vertex -176.631 -4.83835 18.4461
      vertex -145.164 -0.000175476 18.4461
    endloop
  endfacet
  facet normal 0 0 -1
    outer loop
      vertex -176.631 0 18.4461
      vertex -145.164 -0.000175476 18.4461
      vertex -176.631 -4.83835 18.4461
    endloop
  endfacet
  facet normal 0 0 -1
    outer loop
      vertex -145.164 -0.000175476 18.4461
      vertex -176.631 0 18.4461
      vertex -145.164 0 18.4461
    endloop
  endfacet
  facet normal 0 0 -1
    outer loop
      vertex -145.164 -4.83817 18.4461
      vertex -140.164 -0.000175476 18.4461
      vertex -140.164 -4.83817 18.4461
    endloop
  endfacet
  facet normal -0 0 -1
    outer loop
      vertex -140.164 -0.000175476 18.4461
      vertex -145.164 -4.83817 18.4461
      vertex -145.164 -0.000175476 18.4461
    endloop
  endfacet
  facet normal 0 1 -0
    outer loop
      vertex -140.164 -0.000175476 18.4461
      vertex -140.263 -0.000175476 18.45
      vertex -140.164 -0.000175476 18.45
    endloop
  endfacet
  facet normal 0 1 0
    outer loop
      vertex -143.15 -0.000175476 22.1301
      vertex -146.201 -0.000175476 22.1076
      vertex -146.664 -0.000175476 22.1301
    endloop
  endfacet
  facet normal 0 1 0
    outer loop
      vertex -143.15 -0.000175476 22.1301
      vertex -145.164 -0.000175476 20.3361
      vertex -146.201 -0.000175476 22.1076
    endloop
  endfacet
  facet normal 0 1 -0
    outer loop
      vertex -143.15 -0.000175476 18.45
      vertex -145.164 -0.000175476 20.3361
      vertex -143.15 -0.000175476 22.1301
    endloop
  endfacet
  facet normal 0 1 0
    outer loop
      vertex -140.263 -0.000175476 18.45
      vertex -140.164 -0.000175476 18.4461
      vertex -143.15 -0.000175476 18.45
    endloop
  endfacet
  facet normal 0 1 0
    outer loop
      vertex -143.15 -0.000175476 18.45
      vertex -145.164 -0.000175476 18.4461
      vertex -145.164 -0.000175476 20.3361
    endloop
  endfacet
  facet normal 0 1 0
    outer loop
      vertex -145.164 -0.000175476 18.4461
      vertex -143.15 -0.000175476 18.45
      vertex -140.164 -0.000175476 18.4461
    endloop
  endfacet
  facet normal 0 1 0
    outer loop
      vertex -146.664 -0.000175476 22.1301
      vertex -146.201 -0.000175476 22.1076
      vertex -146.664 -0.000175476 22.1076
    endloop
  endfacet
  facet normal 0 1 0
    outer loop
      vertex -146.201 -0.000175476 22.1076
      vertex -145.164 -0.000175476 20.3361
      vertex -145.517 -0.000175476 20.3361
    endloop
  endfacet
  facet normal 0 -1 0
    outer loop
      vertex -146.201 -4.83817 22.1076
      vertex -146.664 -4.83817 22.1301
      vertex -146.664 -4.83817 22.1076
    endloop
  endfacet
  facet normal 0 -1 0
    outer loop
      vertex -146.664 -4.83817 22.1301
      vertex -146.201 -4.83817 22.1076
      vertex -144.95 -4.83817 22.1301
    endloop
  endfacet
  facet normal 0 -1 0
    outer loop
      vertex -146.201 -4.83817 22.1076
      vertex -144.95 -4.83817 20.818
      vertex -144.95 -4.83817 22.1301
    endloop
  endfacet
  facet normal 0 -1 0
    outer loop
      vertex -145.517 -4.83817 20.3361
      vertex -144.95 -4.83817 20.818
      vertex -146.201 -4.83817 22.1076
    endloop
  endfacet
  facet normal 0 -1 0
    outer loop
      vertex -145.164 -4.83817 20.3361
      vertex -144.95 -4.83817 20.818
      vertex -145.517 -4.83817 20.3361
    endloop
  endfacet
  facet normal 0 -1 0
    outer loop
      vertex -140.164 -4.83817 18.4461
      vertex -144.95 -4.83817 20.818
      vertex -145.164 -4.83817 20.3361
    endloop
  endfacet
  facet normal 0 -1 0
    outer loop
      vertex -140.164 -4.83817 18.4461
      vertex -145.164 -4.83817 20.3361
      vertex -145.164 -4.83817 18.4461
    endloop
  endfacet
  facet normal 0 -1 0
    outer loop
      vertex -144.95 -4.83817 20.818
      vertex -140.164 -4.83817 18.4461
      vertex -140.164 -4.83817 20.818
    endloop
  endfacet
  facet normal -1 0 0
    outer loop
      vertex -146.664 -4.83817 22.1076
      vertex -146.664 -0.000175476 22.1301
      vertex -146.664 -0.000175476 22.1076
    endloop
  endfacet
  facet normal -1 -0 0
    outer loop
      vertex -146.664 -0.000175476 22.1301
      vertex -146.664 -4.83817 22.1076
      vertex -146.664 -4.83817 22.1301
    endloop
  endfacet
  facet normal 0 0 1
    outer loop
      vertex -143.15 -0.000175476 22.1301
      vertex -144.95 -2.84584 22.1301
      vertex -143.15 -2.84584 22.1301
    endloop
  endfacet
  facet normal -0 0 1
    outer loop
      vertex -146.664 -0.000175476 22.1301
      vertex -144.95 -2.84584 22.1301
      vertex -143.15 -0.000175476 22.1301
    endloop
  endfacet
  facet normal 0 0 1
    outer loop
      vertex -146.664 -4.83817 22.1301
      vertex -144.95 -2.84584 22.1301
      vertex -146.664 -0.000175476 22.1301
    endloop
  endfacet
  facet normal 0 0 1
    outer loop
      vertex -144.95 -2.84584 22.1301
      vertex -146.664 -4.83817 22.1301
      vertex -144.95 -4.83817 22.1301
    endloop
  endfacet
  facet normal 1 0 0
    outer loop
      vertex -140.164 -0.384618 18.45
      vertex -140.164 -0.000175476 18.4461
      vertex -140.164 -0.000175476 18.45
    endloop
  endfacet
  facet normal 1 -0 0
    outer loop
      vertex -140.164 -0.438991 18.45
      vertex -140.164 -0.000175476 18.4461
      vertex -140.164 -0.384618 18.45
    endloop
  endfacet
  facet normal 1 0 0
    outer loop
      vertex -140.164 -0.438991 20.818
      vertex -140.164 -2.84584 20.818
      vertex -140.164 -0.438991 18.45
    endloop
  endfacet
  facet normal 1 0 0
    outer loop
      vertex -140.164 -4.83817 18.4461
      vertex -140.164 -2.84584 20.818
      vertex -140.164 -4.83817 20.818
    endloop
  endfacet
  facet normal 1 0 0
    outer loop
      vertex -140.164 -0.438991 18.45
      vertex -140.164 -4.83817 18.4461
      vertex -140.164 -0.000175476 18.4461
    endloop
  endfacet
  facet normal 1 0 0
    outer loop
      vertex -140.164 -2.84584 20.818
      vertex -140.164 -4.83817 18.4461
      vertex -140.164 -0.438991 18.45
    endloop
  endfacet
endsolid OpenSCAD_Model
